<svg xmlns="http://www.w3.org/2000/svg" xmlns:xlink="http://www.w3.org/1999/xlink" fill="none" version="1.1" width="300" height="300" viewBox="0 0 300 300"><defs><clipPath id="master_svg0_329_12403"><rect x="0" y="0" width="300" height="300" rx="0"/></clipPath><clipPath id="master_svg1_329_12415"><rect x="115" y="85" width="70.00001525878906" height="70" rx="0"/></clipPath></defs><g clip-path="url(#master_svg0_329_12403)"><rect x="0" y="0" width="300" height="300" rx="0" fill="#FBCA04" fill-opacity="1"/><g><g><g><path d="M70.494,170.168Q71.026,170.588,72.328,171.316Q73.63,172.044,74.82,172.044Q76.01,172.044,76.01,171.12Q76.01,170.7,75.674,170.378Q75.338,170.056,74.44200000000001,169.636Q73.54599999999999,169.216,73.098,168.978Q72.65,168.74,71.908,168.194Q71.166,167.648,70.774,167.06Q69.654,165.464,69.654,163Q69.654,160.536,71.488,158.842Q73.322,157.148,76.28999999999999,157.148Q78.306,157.148,80.014,157.582Q81.72200000000001,158.016,81.77799999999999,158.716Q81.77799999999999,158.8,81.77799999999999,158.88400000000001Q81.77799999999999,159.864,81.162,161.362Q80.54599999999999,162.86,80.294,163.028Q78.502,162.10399999999998,77.088,162.10399999999998Q75.674,162.10399999999998,75.674,163.112Q75.674,163.728,76.71000000000001,164.204Q76.934,164.316,77.354,164.512Q77.774,164.708,78.32,164.974Q78.866,165.24,79.496,165.64600000000002Q80.126,166.052,80.854,166.724Q82.338,168.124,82.338,170.42000000000002Q82.338,173.416,80.686,175.32Q79.03399999999999,177.224,75.59,177.28Q73.91,177.28,72.55199999999999,177Q71.194,176.72,70.186,175.90800000000002Q69.178,175.096,69.178,173.948Q69.178,172.8,69.598,171.666Q70.018,170.532,70.494,170.168ZM90.346,176.832Q90.346,177.028,88.33,177.028Q85.53,176.944,85.53,176.72L85.53,167.648L84.80199999999999,167.648Q84.074,167.648,83.85,166.416Q83.794,166.052,83.794,165.688Q83.794,164.82,84.13,163.952Q84.634,162.72,85.69800000000001,162.72Q86.762,162.72,87.602,163.224Q88.44200000000001,163.728,88.72200000000001,164.232Q90.48599999999999,162.72,92.922,162.72Q95.358,162.72,96.45,164.036Q97.542,165.352,97.542,168.348L97.542,176.748Q97.542,177.084,95.148,177.084Q92.75399999999999,177.084,92.75399999999999,176.748L92.75399999999999,168.656Q92.75399999999999,167.256,91.774,167.256Q91.494,167.256,90.99000000000001,167.494Q90.48599999999999,167.732,90.346,167.844L90.346,176.832ZM101.686,166.836Q100.902,165.436,100.902,164.554Q100.902,163.672,101.378,163.42Q102.97399999999999,162.72,105.75999999999999,162.72Q108.54599999999999,162.72,109.694,164.022Q110.842,165.324,110.842,167.872L110.842,172.296L111.794,172.296Q112.27000000000001,172.296,112.536,172.856Q112.80199999999999,173.416,112.80199999999999,174.39600000000002Q112.80199999999999,175.376,112.312,176.328Q111.822,177.28,110.982,177.28Q109.47,177.28,108.54599999999999,176.468Q108.126,176.132,107.902,175.656Q106.614,177.28,103.898,177.28Q101.854,177.28,100.45400000000001,175.824Q99.054,174.368,99.054,172.38Q99.054,167.816,104.51400000000001,167.816L106.054,167.816L106.054,167.536Q106.054,166.808,105.816,166.598Q105.578,166.388,104.71000000000001,166.388Q103.646,166.388,101.686,166.836ZM103.926,171.988Q103.926,172.60399999999998,104.262,172.926Q104.598,173.248,105.116,173.248Q105.634,173.248,106.054,172.828L106.054,170.672L105.27000000000001,170.672Q103.926,170.672,103.926,171.988ZM118.99,170.056Q118.99,172.8,121.062,172.8Q122.406,172.8,123.302,172.268Q123.722,172.268,123.988,173.71Q124.254,175.152,124.254,175.67000000000002Q124.254,176.188,124.114,176.356Q122.63,177.28,120.054,177.28Q117.478,177.28,115.672,175.362Q113.866,173.444,113.866,170.126Q113.866,166.808,115.644,164.764Q117.422,162.72,120.376,162.72Q123.33,162.72,124.478,164.148Q124.73,164.456,124.73,165.058Q124.73,165.66,124.506,166.528Q124.002,168.32,123.19,168.6Q123.078,168.628,122.868,168.628Q122.658,168.628,122.35,168.292Q121.258,167.2,120.6,167.2Q119.942,167.2,119.466,167.872Q118.99,168.544,118.99,170.056ZM126.27,157.624Q126.27,157.176,128.81799999999998,157.176Q131.19799999999998,157.26,131.19799999999998,157.54L131.19799999999998,168.292L133.97,163.168Q134.166,162.748,136.35,162.748Q138.534,162.748,139.15,163.028L135.51,168.964L139.70999999999998,176.832Q139.76600000000002,176.944,138.66,177.014Q137.554,177.084,136.826,177.084Q134.138,177.084,133.942,176.832L131.17000000000002,170.61599999999999L131.17000000000002,176.804Q131.17000000000002,177.168,128.72,177.168Q126.27,177.168,126.27,176.832L126.27,157.624ZM154.914,163.308L154.942,163.028Q154.942,162.328,154.48000000000002,161.908Q154.018,161.488,153.346,161.488Q152.674,161.488,152.226,161.936Q151.77800000000002,162.38400000000001,151.77800000000002,163.168Q151.77800000000002,165.296,154.774,165.296Q155.446,165.296,156.286,165.184Q161.80200000000002,164.484,161.858,164.484Q162.642,164.484,162.642,166.08Q162.642,167.368,162.11,168.628L159.25400000000002,168.964Q159.982,170.728,159.982,172.156Q159.982,174.368,158.288,175.824Q156.594,177.28,153.36,177.28Q150.126,177.28,148.25,175.698Q146.374,174.11599999999999,146.374,171.638Q146.374,169.16,148.75400000000002,167.39600000000002Q146.99,165.436,146.99,162.86Q146.99,160.284,148.78199999999998,158.702Q150.574,157.12,153.43,157.12Q156.286,157.12,157.952,158.52Q159.618,159.92,159.618,162.3Q159.618,162.776,158.708,163.224Q157.798,163.672,156.538,163.672Q155.27800000000002,163.672,154.914,163.308ZM151.834,169.02Q151.526,169.832,151.526,170.462Q151.526,171.09199999999998,151.72199999999998,171.568Q152.17000000000002,172.66,153.514,172.66Q154.466,172.66,154.9,171.974Q155.334,171.288,155.334,170.252Q155.334,169.776,155.30599999999998,169.538Q155.27800000000002,169.3,155.27800000000002,169.244Q154.326,169.412,153.402,169.412Q152.478,169.412,151.834,169.02ZM171.20999999999998,170.168Q171.74200000000002,170.588,173.04399999999998,171.316Q174.346,172.044,175.536,172.044Q176.726,172.044,176.726,171.12Q176.726,170.7,176.39,170.378Q176.054,170.056,175.15800000000002,169.636Q174.262,169.216,173.814,168.978Q173.36599999999999,168.74,172.624,168.194Q171.882,167.648,171.49,167.06Q170.37,165.464,170.37,163Q170.37,160.536,172.204,158.842Q174.038,157.148,177.006,157.148Q179.022,157.148,180.73,157.582Q182.438,158.016,182.494,158.716Q182.494,158.8,182.494,158.88400000000001Q182.494,159.864,181.878,161.362Q181.262,162.86,181.01,163.028Q179.218,162.10399999999998,177.804,162.10399999999998Q176.39,162.10399999999998,176.39,163.112Q176.39,163.728,177.426,164.204Q177.65,164.316,178.07,164.512Q178.49,164.708,179.036,164.974Q179.582,165.24,180.212,165.64600000000002Q180.842,166.052,181.57,166.724Q183.054,168.124,183.054,170.42000000000002Q183.054,173.416,181.402,175.32Q179.75,177.224,176.30599999999998,177.28Q174.626,177.28,173.268,177Q171.91,176.72,170.902,175.90800000000002Q169.894,175.096,169.894,173.948Q169.894,172.8,170.314,171.666Q170.73399999999998,170.532,171.20999999999998,170.168ZM191.65,176.832Q191.65,177.168,189.298,177.168Q186.498,177.056,186.498,176.804L186.498,166.892L185.07,166.892Q184.51,166.892,184.51,164.96Q184.51,164.456,184.608,163.728Q184.706,163,185.014,163L186.498,163L186.498,160.536Q186.498,159.976,188.864,159.976Q191.23,159.976,191.23,160.424L191.23,162.216L191.258,163L193.638,163Q194.114,163,194.114,164.96Q194.114,166.92,193.638,166.92L191.65,166.92L191.65,176.832ZM197.278,166.836Q196.494,165.436,196.494,164.554Q196.494,163.672,196.97,163.42Q198.566,162.72,201.352,162.72Q204.138,162.72,205.286,164.022Q206.434,165.324,206.434,167.872L206.434,172.296L207.386,172.296Q207.862,172.296,208.128,172.856Q208.394,173.416,208.394,174.39600000000002Q208.394,175.376,207.904,176.328Q207.414,177.28,206.574,177.28Q205.062,177.28,204.138,176.468Q203.718,176.132,203.494,175.656Q202.206,177.28,199.49,177.28Q197.446,177.28,196.046,175.824Q194.646,174.368,194.646,172.38Q194.646,167.816,200.106,167.816L201.646,167.816L201.646,167.536Q201.646,166.808,201.408,166.598Q201.17,166.388,200.302,166.388Q199.238,166.388,197.278,166.836ZM199.518,171.988Q199.518,172.60399999999998,199.854,172.926Q200.19,173.248,200.708,173.248Q201.226,173.248,201.646,172.828L201.646,170.672L200.862,170.672Q199.518,170.672,199.518,171.988ZM216.43,176.832Q216.43,177.168,214.078,177.168Q211.278,177.056,211.278,176.804L211.278,166.892L209.85,166.892Q209.29,166.892,209.29,164.96Q209.29,164.456,209.388,163.728Q209.486,163,209.794,163L211.278,163L211.278,160.536Q211.278,159.976,213.644,159.976Q216.01,159.976,216.01,160.424L216.01,162.216L216.038,163L218.418,163Q218.894,163,218.894,164.96Q218.894,166.92,218.418,166.92L216.43,166.92L216.43,176.832ZM220.882,171.96Q223.15,173.332,224.466,173.332Q225.306,173.332,225.306,172.744Q225.306,172.324,223.85,171.652Q220.35,170.224,220.35,166.976Q220.35,164.904,221.862,163.812Q223.374,162.72,225.488,162.72Q227.602,162.72,229.072,163.168Q230.542,163.61599999999999,230.542,164.344Q230.542,164.96,229.94,165.968Q229.338,166.976,229.114,167.06Q227.91,166.388,226.51,166.388Q225.754,166.388,225.754,166.92Q225.754,167.256,226.048,167.494Q226.342,167.732,227.126,168.082Q227.91,168.432,228.428,168.712Q228.946,168.992,229.59,169.496Q230.934,170.56,230.934,172.268Q230.934,174.508,229.45,175.894Q227.966,177.28,224.97,177.28Q222.982,177.28,221.358,176.608Q219.734,175.936,219.734,174.76Q219.734,173.976,220.112,173.108Q220.49,172.24,220.882,171.96Z" fill="#FFFFFF" fill-opacity="1"/></g><g><path d="M78.464,188.88L78.464,190.16L78.312,190.16Q78.312,190.10399999999998,78.288,190.048Q78.264,189.992,78.224,189.992L74.152,189.992L74.152,189.84Q74.208,189.84,74.268,189.816Q74.328,189.792,74.328,189.752L74.328,184.232Q74.328,184.192,74.268,184.168Q74.208,184.144,74.152,184.144L74.152,183.992L78.01599999999999,183.992Q78.056,183.992,78.08,183.936Q78.104,183.88,78.104,183.824L78.256,183.824L78.256,185.104L78.104,185.104Q78.104,185.048,78.08,184.992Q78.056,184.936,78.01599999999999,184.936L75.36,184.936L75.36,186.344L77.624,186.344Q77.664,186.344,77.688,186.288Q77.712,186.232,77.712,186.176L77.864,186.176L77.864,187.456L77.712,187.456Q77.712,187.4,77.688,187.344Q77.664,187.288,77.624,187.288L75.36,187.288L75.36,189.048L78.224,189.048Q78.264,189.048,78.288,188.992Q78.312,188.936,78.312,188.88L78.464,188.88ZM83.21600000000001,186.472Q83.056,186.472,83.01599999999999,186.536L81.568,189.64Q81.544,189.696,81.544,189.736Q81.544,189.8,81.596,189.824Q81.648,189.848,81.70400000000001,189.848L81.70400000000001,190L80.088,190L80.088,189.848Q80.144,189.848,80.2,189.82Q80.256,189.792,80.256,189.72Q80.256,189.68,80.232,189.632L78.896,186.544Q78.872,186.472,78.70400000000001,186.472L78.70400000000001,186.32L80.096,186.32L80.096,186.472Q80,186.472,79.97200000000001,186.516Q79.944,186.56,79.968,186.61599999999999L80.952,188.912L81.992,186.608Q82,186.6,82,186.584Q82,186.544,81.94,186.508Q81.88,186.472,81.792,186.472L81.792,186.32L83.21600000000001,186.32L83.21600000000001,186.472ZM85.52799999999999,186.152Q86.144,186.152,86.592,186.42Q87.03999999999999,186.688,87.27199999999999,187.144Q87.50399999999999,187.6,87.50399999999999,188.152Q87.50399999999999,188.32,87.47999999999999,188.488L84.55199999999999,188.488Q84.584,188.872,84.888,189.088Q85.19200000000001,189.304,85.616,189.304Q85.904,189.304,86.1,189.224Q86.29599999999999,189.144,86.44800000000001,188.984Q86.464,188.952,86.464,188.944Q86.464,188.912,86.44,188.876Q86.416,188.84,86.392,188.824L86.488,188.704L87.376,189.4L87.288,189.52Q87.168,189.448,87.12,189.504Q86.56,190.176,85.616,190.176Q85.00800000000001,190.176,84.544,189.908Q84.08,189.64,83.828,189.188Q83.576,188.736,83.576,188.184Q83.576,187.6,83.824,187.136Q84.072,186.672,84.51599999999999,186.412Q84.96000000000001,186.152,85.52799999999999,186.152ZM86.544,187.744Q86.512,187.416,86.212,187.188Q85.912,186.96,85.536,186.96Q85.16,186.96,84.888,187.188Q84.616,187.416,84.56,187.744L86.544,187.744ZM90.576,186.08L90.576,187.368L90.424,187.368Q90.424,187.312,90.4,187.24Q90.376,187.168,90.336,187.16L90.28,187.16Q90.032,187.16,89.78,187.3Q89.52799999999999,187.44,89.364,187.668Q89.2,187.896,89.2,188.152L89.2,189.76Q89.2,189.8,89.25999999999999,189.824Q89.32,189.848,89.376,189.848L89.376,190L88.032,190L88.032,189.848Q88.088,189.848,88.148,189.824Q88.208,189.8,88.208,189.76L88.208,186.56Q88.208,186.52,88.148,186.496Q88.088,186.472,88.032,186.472L88.032,186.32L89.2,186.32L89.2,186.664Q89.416,186.464,89.72,186.344Q90.024,186.224,90.328,186.224L90.336,186.224L90.344,186.224Q90.384,186.224,90.404,186.176Q90.424,186.128,90.424,186.08L90.576,186.08ZM95.432,186.472Q95.26400000000001,186.472,95.22399999999999,186.536L92.424,192.048Q92.416,192.056,92.416,192.072Q92.416,192.12,92.47200000000001,192.152Q92.52799999999999,192.184,92.616,192.184L92.616,192.336L91.112,192.336L91.112,192.184Q91.28,192.184,91.32,192.12L92.624,189.552L90.98400000000001,186.528Q90.952,186.472,90.77600000000001,186.472L90.77600000000001,186.32L92.256,186.32L92.256,186.472Q92.16,186.472,92.14,186.512Q92.12,186.552,92.152,186.6L93.168,188.48L94.12,186.608Q94.128,186.6,94.128,186.584Q94.128,186.536,94.072,186.504Q94.01599999999999,186.472,93.928,186.472L93.928,186.32L95.432,186.32L95.432,186.472ZM100.592,190.152Q99.904,190.152,99.312,189.828Q98.72,189.504,98.168,188.936Q98.152,188.92,98.128,188.92Q98.056,188.92,97.968,189.008L97.864,188.896L98.976,187.848L99.08,187.96Q99.032,188,98.99199999999999,188.072Q98.952,188.144,98.976,188.176Q99.72,189.12,100.6,189.12Q100.904,189.12,101.148,189Q101.392,188.88,101.52799999999999,188.692Q101.664,188.504,101.664,188.304Q101.664,187.832,100.84,187.528L99.856,187.16Q99.26400000000001,186.944,98.932,186.568Q98.6,186.192,98.6,185.664Q98.6,185.144,98.844,184.756Q99.088,184.368,99.536,184.16Q99.98400000000001,183.952,100.576,183.952Q101.136,183.952,101.51599999999999,184.124Q101.896,184.296,102.328,184.648Q102.336,184.656,102.36,184.656Q102.4,184.656,102.452,184.628Q102.50399999999999,184.6,102.536,184.568L102.64,184.672L101.648,185.648L101.544,185.536Q101.584,185.496,101.604,185.444Q101.624,185.392,101.592,185.368Q101.072,184.952,100.56,184.952Q100.152,184.952,99.912,185.14Q99.672,185.328,99.672,185.61599999999999Q99.672,185.872,99.804,186.008Q99.936,186.144,100.208,186.24L101.176,186.592Q101.68,186.776,102.01599999999999,186.98Q102.352,187.184,102.55199999999999,187.516Q102.75200000000001,187.848,102.75200000000001,188.344Q102.75200000000001,188.824,102.5,189.236Q102.24799999999999,189.648,101.756,189.9Q101.26400000000001,190.152,100.592,190.152ZM107.392,189.76Q107.392,189.8,107.452,189.824Q107.512,189.848,107.576,189.848L107.576,190L106.168,190L106.168,189.848Q106.232,189.848,106.292,189.824Q106.352,189.8,106.352,189.76L106.352,188.096Q106.352,187.688,106.152,187.396Q105.952,187.104,105.55199999999999,187.104Q105.144,187.104,104.892,187.376Q104.64,187.648,104.64,188.16L104.64,189.76Q104.64,189.8,104.7,189.824Q104.75999999999999,189.848,104.824,189.848L104.824,190L103.424,190L103.424,189.848Q103.488,189.848,103.548,189.824Q103.608,189.8,103.608,189.76L103.608,186.56Q103.608,186.52,103.548,186.496Q103.488,186.472,103.432,186.472L103.432,186.32L104.64,186.32L104.64,186.648Q104.848,186.456,105.132,186.348Q105.416,186.24,105.712,186.24Q106.22399999999999,186.24,106.604,186.456Q106.98400000000001,186.672,107.188,187.036Q107.392,187.4,107.392,187.848L107.392,189.76ZM112.64,186.472Q112.584,186.472,112.524,186.496Q112.464,186.52,112.464,186.56L112.464,189.76Q112.464,189.8,112.524,189.824Q112.584,189.848,112.64,189.848L112.64,190L111.456,190L111.456,189.56Q110.952,190.10399999999998,110.184,190.10399999999998Q109.6,190.10399999999998,109.156,189.868Q108.712,189.632,108.468,189.192Q108.22399999999999,188.752,108.22399999999999,188.168Q108.22399999999999,187.6,108.49199999999999,187.156Q108.75999999999999,186.712,109.208,186.468Q109.656,186.224,110.184,186.224Q110.952,186.224,111.456,186.816L111.456,186.32L112.64,186.32L112.64,186.472ZM110.304,189.256Q110.632,189.256,110.892,189.108Q111.152,188.96,111.29599999999999,188.716Q111.44,188.472,111.44,188.192Q111.44,187.712,111.124,187.4Q110.80799999999999,187.088,110.304,187.088Q109.816,187.088,109.5,187.392Q109.184,187.696,109.184,188.168Q109.184,188.664,109.50800000000001,188.96Q109.832,189.256,110.304,189.256ZM115.2,190.168Q114.688,190.168,114.248,189.912Q113.80799999999999,189.656,113.548,189.216Q113.288,188.776,113.288,188.256Q113.288,187.64,113.548,187.172Q113.80799999999999,186.704,114.248,186.452Q114.688,186.2,115.216,186.2Q115.592,186.2,115.86,186.288Q116.128,186.376,116.292,186.5Q116.456,186.624,116.704,186.848Q116.72,186.864,116.744,186.864Q116.776,186.864,116.82,186.84Q116.864,186.816,116.888,186.792L116.992,186.904L116.128,187.704L116.024,187.592Q116.064,187.56,116.092,187.5Q116.12,187.44,116.096,187.408Q115.808,187.056,115.304,187.056Q114.848,187.056,114.54,187.36Q114.232,187.664,114.232,188.152Q114.232,188.656,114.528,188.96Q114.824,189.264,115.304,189.264Q115.544,189.264,115.696,189.204Q115.848,189.144,116.04,188.976Q116.056,188.96,116.056,188.936Q116.056,188.888,116,188.832L116.096,188.712L116.96,189.432L116.864,189.544Q116.736,189.472,116.688,189.52Q116.392,189.848,116.068,190.008Q115.744,190.168,115.2,190.168ZM121.072,189.808Q121.104,189.848,121.264,189.848L121.264,190L119.8,190L119.8,189.848Q119.896,189.848,119.896,189.808Q119.896,189.792,119.864,189.744L119.104,188.696L118.672,189.2L118.672,189.76Q118.672,189.8,118.732,189.824Q118.792,189.848,118.848,189.848L118.848,190L117.48,190L117.48,189.848Q117.536,189.848,117.596,189.824Q117.656,189.8,117.656,189.76L117.656,184.24Q117.656,184.2,117.596,184.176Q117.536,184.152,117.48,184.152L117.48,184L118.848,184L118.848,184.152Q118.792,184.152,118.732,184.176Q118.672,184.2,118.672,184.24L118.672,187.776L119.728,186.56L119.744,186.528Q119.744,186.472,119.6,186.472L119.6,186.32L121.2,186.32L121.2,186.472L121.128,186.472Q121.024,186.472,120.992,186.504L119.704,188L121.072,189.808ZM127.064,190.08Q126.208,190.08,125.488,189.676Q124.768,189.272,124.352,188.556Q123.936,187.84,123.936,186.96Q123.936,186.032,124.352,185.32Q124.768,184.608,125.472,184.22Q126.176,183.832,127.016,183.832Q127.824,183.832,128.38,184.116Q128.936,184.4,129.43200000000002,184.912Q129.44799999999998,184.928,129.48000000000002,184.928Q129.52800000000002,184.928,129.648,184.856L129.744,184.976L128.64,185.848L128.54399999999998,185.728Q128.59199999999998,185.696,128.62,185.644Q128.648,185.592,128.61599999999999,185.568Q128.28,185.24,127.916,185.068Q127.552,184.896,127.032,184.896Q126.488,184.896,126.032,185.164Q125.576,185.432,125.312,185.904Q125.048,186.376,125.048,186.96Q125.048,187.52,125.328,187.98Q125.608,188.44,126.072,188.704Q126.536,188.968,127.064,188.968Q127.56,188.968,127.912,188.796Q128.264,188.624,128.576,188.28L128.59199999999998,188.248Q128.59199999999998,188.208,128.55599999999998,188.156Q128.51999999999998,188.104,128.48000000000002,188.08L128.584,187.968L129.776,188.968L129.68,189.088Q129.632,189.048,129.56,189.016Q129.488,188.984,129.464,189.016Q128.95999999999998,189.56,128.40800000000002,189.82Q127.856,190.08,127.064,190.08ZM132.096,190.096Q131.50400000000002,190.096,131.05200000000002,189.844Q130.6,189.592,130.348,189.152Q130.096,188.712,130.096,188.16Q130.096,187.61599999999999,130.348,187.168Q130.6,186.72,131.05599999999998,186.46Q131.512,186.2,132.096,186.2Q132.656,186.2,133.112,186.452Q133.56799999999998,186.704,133.832,187.148Q134.096,187.592,134.096,188.16Q134.096,188.656,133.86,189.1Q133.624,189.544,133.168,189.82Q132.712,190.096,132.096,190.096ZM132.096,189.176Q132.56799999999998,189.176,132.86,188.9Q133.152,188.624,133.152,188.184Q133.152,187.728,132.86,187.432Q132.56799999999998,187.136,132.096,187.136Q131.656,187.136,131.36,187.428Q131.064,187.72,131.064,188.16Q131.064,188.624,131.36,188.9Q131.656,189.176,132.096,189.176ZM138.344,189.76Q138.344,189.8,138.404,189.824Q138.464,189.848,138.51999999999998,189.848L138.51999999999998,190L137.52800000000002,190L137.52800000000002,189.704Q137.10399999999998,190.072,136.54399999999998,190.072Q135.704,190.072,135.312,189.588Q134.92000000000002,189.10399999999998,134.92000000000002,188.376L134.92000000000002,186.56Q134.92000000000002,186.52,134.86,186.496Q134.8,186.472,134.744,186.472L134.744,186.32L136.10399999999998,186.32L136.10399999999998,186.472Q136.048,186.472,135.988,186.496Q135.928,186.52,135.928,186.56L135.928,188.312Q135.928,188.656,136.10399999999998,188.892Q136.28,189.128,136.648,189.128Q137,189.128,137.176,188.912Q137.352,188.696,137.352,188.36L137.352,186.56Q137.352,186.52,137.292,186.496Q137.232,186.472,137.176,186.472L137.176,186.32L138.51999999999998,186.32L138.51999999999998,186.472Q138.464,186.472,138.404,186.496Q138.344,186.52,138.344,186.56L138.344,189.76ZM143.224,189.76Q143.224,189.8,143.284,189.824Q143.344,189.848,143.40800000000002,189.848L143.40800000000002,190L142,190L142,189.848Q142.064,189.848,142.124,189.824Q142.184,189.8,142.184,189.76L142.184,188.096Q142.184,187.688,141.98399999999998,187.396Q141.784,187.104,141.38400000000001,187.104Q140.976,187.104,140.724,187.376Q140.47199999999998,187.648,140.47199999999998,188.16L140.47199999999998,189.76Q140.47199999999998,189.8,140.53199999999998,189.824Q140.59199999999998,189.848,140.656,189.848L140.656,190L139.256,190L139.256,189.848Q139.32,189.848,139.38,189.824Q139.44,189.8,139.44,189.76L139.44,186.56Q139.44,186.52,139.38,186.496Q139.32,186.472,139.264,186.472L139.264,186.32L140.47199999999998,186.32L140.47199999999998,186.648Q140.68,186.456,140.964,186.348Q141.248,186.24,141.54399999999998,186.24Q142.05599999999998,186.24,142.436,186.456Q142.816,186.672,143.01999999999998,187.036Q143.224,187.4,143.224,187.848L143.224,189.76ZM146.288,186.16L146.288,187.376L146.136,187.376Q146.136,187.32,146.112,187.268Q146.088,187.216,146.048,187.216L145.52800000000002,187.216L145.52800000000002,189.76Q145.52800000000002,189.8,145.584,189.824Q145.64,189.848,145.696,189.848L145.696,190L144.392,190L144.392,189.848Q144.44799999999998,189.848,144.50400000000002,189.824Q144.56,189.8,144.56,189.76L144.56,187.216L144.176,187.216Q144.136,187.216,144.112,187.268Q144.088,187.32,144.088,187.376L143.936,187.376L143.936,186.16L144.088,186.16Q144.088,186.216,144.112,186.268Q144.136,186.32,144.176,186.32L144.56,186.32L144.56,185.38400000000001Q144.56,185.344,144.50400000000002,185.32Q144.44799999999998,185.296,144.392,185.296L144.392,185.144L145.696,185.144L145.696,185.296Q145.64,185.296,145.584,185.32Q145.52800000000002,185.344,145.52800000000002,185.38400000000001L145.52800000000002,186.32L146.048,186.32Q146.088,186.32,146.112,186.268Q146.136,186.216,146.136,186.16L146.288,186.16ZM148.368,190.12Q147.95999999999998,190.12,147.57999999999998,189.952Q147.2,189.784,146.816,189.472Q146.8,189.456,146.776,189.456Q146.712,189.456,146.64,189.528L146.52800000000002,189.432L147.328,188.52L147.44,188.624Q147.40800000000002,188.664,147.388,188.72Q147.368,188.776,147.4,188.808Q147.664,189.048,147.892,189.164Q148.12,189.28,148.368,189.28Q148.98399999999998,189.28,148.98399999999998,188.872Q148.98399999999998,188.688,148.796,188.588Q148.608,188.488,148.168,188.368Q147.6,188.216,147.344,187.972Q147.088,187.728,147.088,187.304Q147.088,186.8,147.416,186.484Q147.744,186.168,148.312,186.168Q148.6,186.168,148.832,186.256Q149.064,186.344,149.392,186.568Q149.4,186.576,149.424,186.576Q149.464,186.576,149.50400000000002,186.552Q149.54399999999998,186.528,149.56,186.504L149.68,186.608L148.95999999999998,187.424L148.848,187.328Q148.88,187.296,148.892,187.244Q148.904,187.192,148.872,187.16Q148.728,187.048,148.596,186.992Q148.464,186.936,148.304,186.936Q148.136,186.936,148.04000000000002,187Q147.94400000000002,187.064,147.94400000000002,187.192Q147.94400000000002,187.296,148,187.36Q148.05599999999998,187.424,148.204,187.488Q148.352,187.552,148.656,187.648Q149.216,187.816,149.536,188.11599999999999Q149.856,188.416,149.856,188.856Q149.856,189.504,149.44799999999998,189.812Q149.04000000000002,190.12,148.368,190.12ZM150.45600000000002,189.4Q150.45600000000002,189.12,150.664,188.924Q150.872,188.728,151.168,188.728Q151.512,188.728,151.716,188.952Q151.92000000000002,189.176,151.92000000000002,189.632Q151.92000000000002,190.328,151.50799999999998,190.61599999999999Q151.096,190.904,150.49599999999998,190.904L150.49599999999998,190.696Q150.84,190.64,151.09199999999998,190.476Q151.344,190.312,151.344,190.072Q151.272,190.088,151.144,190.088Q150.848,190.088,150.652,189.892Q150.45600000000002,189.696,150.45600000000002,189.4ZM159.672,188.88L159.672,190.16L159.51999999999998,190.16Q159.51999999999998,190.10399999999998,159.49599999999998,190.048Q159.47199999999998,189.992,159.43200000000002,189.992L155.36,189.992L155.36,189.84Q155.416,189.84,155.476,189.816Q155.536,189.792,155.536,189.752L155.536,184.232Q155.536,184.192,155.476,184.168Q155.416,184.144,155.36,184.144L155.36,183.992L159.224,183.992Q159.264,183.992,159.288,183.936Q159.312,183.88,159.312,183.824L159.464,183.824L159.464,185.104L159.312,185.104Q159.312,185.048,159.288,184.992Q159.264,184.936,159.224,184.936L156.56799999999998,184.936L156.56799999999998,186.344L158.832,186.344Q158.872,186.344,158.89600000000002,186.288Q158.92000000000002,186.232,158.92000000000002,186.176L159.072,186.176L159.072,187.456L158.92000000000002,187.456Q158.92000000000002,187.4,158.89600000000002,187.344Q158.872,187.288,158.832,187.288L156.56799999999998,187.288L156.56799999999998,189.048L159.43200000000002,189.048Q159.47199999999998,189.048,159.49599999999998,188.992Q159.51999999999998,188.936,159.51999999999998,188.88L159.672,188.88ZM164.424,186.472Q164.264,186.472,164.224,186.536L162.776,189.64Q162.752,189.696,162.752,189.736Q162.752,189.8,162.804,189.824Q162.856,189.848,162.912,189.848L162.912,190L161.296,190L161.296,189.848Q161.352,189.848,161.40800000000002,189.82Q161.464,189.792,161.464,189.72Q161.464,189.68,161.44,189.632L160.10399999999998,186.544Q160.07999999999998,186.472,159.912,186.472L159.912,186.32L161.304,186.32L161.304,186.472Q161.208,186.472,161.18,186.516Q161.152,186.56,161.176,186.61599999999999L162.16,188.912L163.2,186.608Q163.208,186.6,163.208,186.584Q163.208,186.544,163.148,186.508Q163.088,186.472,163,186.472L163,186.32L164.424,186.32L164.424,186.472ZM166.736,186.152Q167.352,186.152,167.8,186.42Q168.248,186.688,168.48000000000002,187.144Q168.712,187.6,168.712,188.152Q168.712,188.32,168.688,188.488L165.76,188.488Q165.792,188.872,166.096,189.088Q166.4,189.304,166.824,189.304Q167.112,189.304,167.308,189.224Q167.50400000000002,189.144,167.656,188.984Q167.672,188.952,167.672,188.944Q167.672,188.912,167.648,188.876Q167.624,188.84,167.6,188.824L167.696,188.704L168.584,189.4L168.49599999999998,189.52Q168.376,189.448,168.328,189.504Q167.768,190.176,166.824,190.176Q166.216,190.176,165.752,189.908Q165.288,189.64,165.036,189.188Q164.784,188.736,164.784,188.184Q164.784,187.6,165.03199999999998,187.136Q165.28,186.672,165.724,186.412Q166.168,186.152,166.736,186.152ZM167.752,187.744Q167.72,187.416,167.42000000000002,187.188Q167.12,186.96,166.744,186.96Q166.368,186.96,166.096,187.188Q165.824,187.416,165.768,187.744L167.752,187.744ZM171.784,186.08L171.784,187.368L171.632,187.368Q171.632,187.312,171.608,187.24Q171.584,187.168,171.54399999999998,187.16L171.488,187.16Q171.24,187.16,170.988,187.3Q170.736,187.44,170.572,187.668Q170.40800000000002,187.896,170.40800000000002,188.152L170.40800000000002,189.76Q170.40800000000002,189.8,170.46800000000002,189.824Q170.52800000000002,189.848,170.584,189.848L170.584,190L169.24,190L169.24,189.848Q169.296,189.848,169.356,189.824Q169.416,189.8,169.416,189.76L169.416,186.56Q169.416,186.52,169.356,186.496Q169.296,186.472,169.24,186.472L169.24,186.32L170.40800000000002,186.32L170.40800000000002,186.664Q170.624,186.464,170.928,186.344Q171.232,186.224,171.536,186.224L171.54399999999998,186.224L171.55200000000002,186.224Q171.59199999999998,186.224,171.612,186.176Q171.632,186.128,171.632,186.08L171.784,186.08ZM176.64,186.472Q176.47199999999998,186.472,176.43200000000002,186.536L173.632,192.048Q173.624,192.056,173.624,192.072Q173.624,192.12,173.68,192.152Q173.736,192.184,173.824,192.184L173.824,192.336L172.32,192.336L172.32,192.184Q172.488,192.184,172.52800000000002,192.12L173.832,189.552L172.192,186.528Q172.16,186.472,171.98399999999998,186.472L171.98399999999998,186.32L173.464,186.32L173.464,186.472Q173.368,186.472,173.348,186.512Q173.328,186.552,173.36,186.6L174.376,188.48L175.328,186.608Q175.336,186.6,175.336,186.584Q175.336,186.536,175.28,186.504Q175.224,186.472,175.136,186.472L175.136,186.32L176.64,186.32L176.64,186.472ZM181.8,190.152Q181.112,190.152,180.52,189.828Q179.928,189.504,179.376,188.936Q179.36,188.92,179.336,188.92Q179.264,188.92,179.176,189.008L179.072,188.896L180.184,187.848L180.288,187.96Q180.24,188,180.2,188.072Q180.16,188.144,180.184,188.176Q180.928,189.12,181.808,189.12Q182.112,189.12,182.356,189Q182.6,188.88,182.736,188.692Q182.872,188.504,182.872,188.304Q182.872,187.832,182.048,187.528L181.064,187.16Q180.472,186.944,180.14,186.568Q179.808,186.192,179.808,185.664Q179.808,185.144,180.052,184.756Q180.296,184.368,180.744,184.16Q181.192,183.952,181.784,183.952Q182.344,183.952,182.724,184.124Q183.104,184.296,183.536,184.648Q183.544,184.656,183.568,184.656Q183.608,184.656,183.66,184.628Q183.712,184.6,183.744,184.568L183.848,184.672L182.856,185.648L182.752,185.536Q182.792,185.496,182.812,185.444Q182.832,185.392,182.8,185.368Q182.28,184.952,181.768,184.952Q181.36,184.952,181.12,185.14Q180.88,185.328,180.88,185.61599999999999Q180.88,185.872,181.012,186.008Q181.144,186.144,181.416,186.24L182.384,186.592Q182.888,186.776,183.224,186.98Q183.56,187.184,183.76,187.516Q183.96,187.848,183.96,188.344Q183.96,188.824,183.708,189.236Q183.456,189.648,182.964,189.9Q182.472,190.152,181.8,190.152ZM186.776,186.16L186.776,187.376L186.624,187.376Q186.624,187.32,186.6,187.268Q186.576,187.216,186.536,187.216L186.016,187.216L186.016,189.76Q186.016,189.8,186.072,189.824Q186.128,189.848,186.184,189.848L186.184,190L184.88,190L184.88,189.848Q184.936,189.848,184.992,189.824Q185.048,189.8,185.048,189.76L185.048,187.216L184.664,187.216Q184.624,187.216,184.6,187.268Q184.576,187.32,184.576,187.376L184.424,187.376L184.424,186.16L184.576,186.16Q184.576,186.216,184.6,186.268Q184.624,186.32,184.664,186.32L185.048,186.32L185.048,185.38400000000001Q185.048,185.344,184.992,185.32Q184.936,185.296,184.88,185.296L184.88,185.144L186.184,185.144L186.184,185.296Q186.128,185.296,186.072,185.32Q186.016,185.344,186.016,185.38400000000001L186.016,186.32L186.536,186.32Q186.576,186.32,186.6,186.268Q186.624,186.216,186.624,186.16L186.776,186.16ZM191.632,186.472Q191.576,186.472,191.516,186.496Q191.456,186.52,191.456,186.56L191.456,189.76Q191.456,189.8,191.516,189.824Q191.576,189.848,191.632,189.848L191.632,190L190.448,190L190.448,189.56Q189.944,190.10399999999998,189.176,190.10399999999998Q188.592,190.10399999999998,188.148,189.868Q187.704,189.632,187.46,189.192Q187.216,188.752,187.216,188.168Q187.216,187.6,187.484,187.156Q187.752,186.712,188.2,186.468Q188.648,186.224,189.176,186.224Q189.944,186.224,190.448,186.816L190.448,186.32L191.632,186.32L191.632,186.472ZM189.296,189.256Q189.624,189.256,189.884,189.108Q190.144,188.96,190.288,188.716Q190.432,188.472,190.432,188.192Q190.432,187.712,190.116,187.4Q189.8,187.088,189.296,187.088Q188.808,187.088,188.492,187.392Q188.176,187.696,188.176,188.168Q188.176,188.664,188.5,188.96Q188.824,189.256,189.296,189.256ZM194.512,186.16L194.512,187.376L194.36,187.376Q194.36,187.32,194.336,187.268Q194.312,187.216,194.272,187.216L193.752,187.216L193.752,189.76Q193.752,189.8,193.808,189.824Q193.864,189.848,193.92,189.848L193.92,190L192.616,190L192.616,189.848Q192.672,189.848,192.728,189.824Q192.784,189.8,192.784,189.76L192.784,187.216L192.4,187.216Q192.36,187.216,192.336,187.268Q192.312,187.32,192.312,187.376L192.16,187.376L192.16,186.16L192.312,186.16Q192.312,186.216,192.336,186.268Q192.36,186.32,192.4,186.32L192.784,186.32L192.784,185.38400000000001Q192.784,185.344,192.728,185.32Q192.672,185.296,192.616,185.296L192.616,185.144L193.92,185.144L193.92,185.296Q193.864,185.296,193.808,185.32Q193.752,185.344,193.752,185.38400000000001L193.752,186.32L194.272,186.32Q194.312,186.32,194.336,186.268Q194.36,186.216,194.36,186.16L194.512,186.16ZM204.248,189.76Q204.248,189.8,204.308,189.824Q204.368,189.848,204.432,189.848L204.432,190L203.032,190L203.032,189.848Q203.096,189.848,203.156,189.824Q203.216,189.8,203.216,189.76L203.216,185.176L200.872,190.304L198.536,185.16L198.536,189.76Q198.536,189.8,198.596,189.824Q198.656,189.848,198.72,189.848L198.72,190L197.312,190L197.312,189.848Q197.376,189.848,197.436,189.824Q197.496,189.8,197.496,189.76L197.496,184.24Q197.496,184.2,197.436,184.176Q197.376,184.152,197.32,184.152L197.32,184L199.384,184L199.384,184.152Q199.288,184.152,199.26,184.196Q199.232,184.24,199.256,184.296L200.88,188.072L202.528,184.296Q202.544,184.248,202.48,184.2Q202.416,184.152,202.32,184.152L202.32,184L204.424,184L204.424,184.152Q204.368,184.152,204.308,184.176Q204.248,184.2,204.248,184.24L204.248,189.76ZM209.528,186.472Q209.472,186.472,209.412,186.496Q209.352,186.52,209.352,186.56L209.352,189.76Q209.352,189.8,209.412,189.824Q209.472,189.848,209.528,189.848L209.528,190L208.344,190L208.344,189.56Q207.84,190.10399999999998,207.072,190.10399999999998Q206.488,190.10399999999998,206.044,189.868Q205.6,189.632,205.356,189.192Q205.112,188.752,205.112,188.168Q205.112,187.6,205.38,187.156Q205.648,186.712,206.096,186.468Q206.544,186.224,207.072,186.224Q207.84,186.224,208.344,186.816L208.344,186.32L209.528,186.32L209.528,186.472ZM207.192,189.256Q207.52,189.256,207.78,189.108Q208.04,188.96,208.184,188.716Q208.328,188.472,208.328,188.192Q208.328,187.712,208.012,187.4Q207.696,187.088,207.192,187.088Q206.704,187.088,206.388,187.392Q206.072,187.696,206.072,188.168Q206.072,188.664,206.396,188.96Q206.72,189.256,207.192,189.256ZM212.408,186.16L212.408,187.376L212.256,187.376Q212.256,187.32,212.232,187.268Q212.208,187.216,212.168,187.216L211.648,187.216L211.648,189.76Q211.648,189.8,211.704,189.824Q211.76,189.848,211.816,189.848L211.816,190L210.512,190L210.512,189.848Q210.568,189.848,210.624,189.824Q210.68,189.8,210.68,189.76L210.68,187.216L210.296,187.216Q210.256,187.216,210.232,187.268Q210.208,187.32,210.208,187.376L210.056,187.376L210.056,186.16L210.208,186.16Q210.208,186.216,210.232,186.268Q210.256,186.32,210.296,186.32L210.68,186.32L210.68,185.38400000000001Q210.68,185.344,210.624,185.32Q210.568,185.296,210.512,185.296L210.512,185.144L211.816,185.144L211.816,185.296Q211.76,185.296,211.704,185.32Q211.648,185.344,211.648,185.38400000000001L211.648,186.32L212.168,186.32Q212.208,186.32,212.232,186.268Q212.256,186.216,212.256,186.16L212.408,186.16ZM215.08,186.16L215.08,187.376L214.928,187.376Q214.928,187.32,214.904,187.268Q214.88,187.216,214.84,187.216L214.32,187.216L214.32,189.76Q214.32,189.8,214.376,189.824Q214.432,189.848,214.488,189.848L214.488,190L213.184,190L213.184,189.848Q213.24,189.848,213.296,189.824Q213.352,189.8,213.352,189.76L213.352,187.216L212.968,187.216Q212.928,187.216,212.904,187.268Q212.88,187.32,212.88,187.376L212.728,187.376L212.728,186.16L212.88,186.16Q212.88,186.216,212.904,186.268Q212.928,186.32,212.968,186.32L213.352,186.32L213.352,185.38400000000001Q213.352,185.344,213.296,185.32Q213.24,185.296,213.184,185.296L213.184,185.144L214.488,185.144L214.488,185.296Q214.432,185.296,214.376,185.32Q214.32,185.344,214.32,185.38400000000001L214.32,186.32L214.84,186.32Q214.88,186.32,214.904,186.268Q214.928,186.216,214.928,186.16L215.08,186.16ZM217.472,186.152Q218.088,186.152,218.536,186.42Q218.984,186.688,219.216,187.144Q219.448,187.6,219.448,188.152Q219.448,188.32,219.424,188.488L216.496,188.488Q216.528,188.872,216.832,189.088Q217.136,189.304,217.56,189.304Q217.848,189.304,218.044,189.224Q218.24,189.144,218.392,188.984Q218.408,188.952,218.408,188.944Q218.408,188.912,218.384,188.876Q218.36,188.84,218.336,188.824L218.432,188.704L219.32,189.4L219.232,189.52Q219.112,189.448,219.064,189.504Q218.504,190.176,217.56,190.176Q216.952,190.176,216.488,189.908Q216.024,189.64,215.772,189.188Q215.52,188.736,215.52,188.184Q215.52,187.6,215.768,187.136Q216.016,186.672,216.46,186.412Q216.904,186.152,217.472,186.152ZM218.488,187.744Q218.456,187.416,218.156,187.188Q217.856,186.96,217.48,186.96Q217.104,186.96,216.832,187.188Q216.56,187.416,216.504,187.744L218.488,187.744ZM222.52,186.08L222.52,187.368L222.368,187.368Q222.368,187.312,222.344,187.24Q222.32,187.168,222.28,187.16L222.224,187.16Q221.976,187.16,221.724,187.3Q221.472,187.44,221.308,187.668Q221.144,187.896,221.144,188.152L221.144,189.76Q221.144,189.8,221.204,189.824Q221.264,189.848,221.32,189.848L221.32,190L219.976,190L219.976,189.848Q220.032,189.848,220.092,189.824Q220.152,189.8,220.152,189.76L220.152,186.56Q220.152,186.52,220.092,186.496Q220.032,186.472,219.976,186.472L219.976,186.32L221.144,186.32L221.144,186.664Q221.36,186.464,221.664,186.344Q221.968,186.224,222.272,186.224L222.28,186.224L222.288,186.224Q222.328,186.224,222.348,186.176Q222.368,186.128,222.368,186.08L222.52,186.08ZM224.56,190.12Q224.152,190.12,223.772,189.952Q223.392,189.784,223.008,189.472Q222.992,189.456,222.968,189.456Q222.904,189.456,222.832,189.528L222.72,189.432L223.52,188.52L223.632,188.624Q223.6,188.664,223.58,188.72Q223.56,188.776,223.592,188.808Q223.856,189.048,224.084,189.164Q224.312,189.28,224.56,189.28Q225.176,189.28,225.176,188.872Q225.176,188.688,224.988,188.588Q224.8,188.488,224.36,188.368Q223.792,188.216,223.536,187.972Q223.28,187.728,223.28,187.304Q223.28,186.8,223.608,186.484Q223.936,186.168,224.504,186.168Q224.792,186.168,225.024,186.256Q225.256,186.344,225.584,186.568Q225.592,186.576,225.616,186.576Q225.656,186.576,225.696,186.552Q225.736,186.528,225.752,186.504L225.872,186.608L225.152,187.424L225.04,187.328Q225.072,187.296,225.084,187.244Q225.096,187.192,225.064,187.16Q224.92,187.048,224.788,186.992Q224.656,186.936,224.496,186.936Q224.328,186.936,224.232,187Q224.136,187.064,224.136,187.192Q224.136,187.296,224.192,187.36Q224.248,187.424,224.396,187.488Q224.544,187.552,224.848,187.648Q225.408,187.816,225.728,188.11599999999999Q226.048,188.416,226.048,188.856Q226.048,189.504,225.64,189.812Q225.232,190.12,224.56,190.12Z" fill="#000000" fill-opacity="1"/></g></g><g clip-path="url(#master_svg1_329_12415)"><g><path d="M152.59771171875,95.937500328125C152.90632171875,96.196065328125,153.10172171875,96.398642328125,153.28130171875,96.757812328125C153.29275171875,96.965826328125,153.29597171875,97.174336328125,153.29465171875,97.382656328125C153.29431171875,97.493006328125,153.29397171875,97.603356328125,153.29362171875,97.717046328125C153.29237171875,97.857306328125,153.29113171875,97.997576328125,153.28985171875,98.142086328125C153.28703171875,98.587626328125,153.28421171875,99.033156328125,153.28130171875,99.492186328125C154.22876171875,99.492186328125,155.17622171875,99.492186328125,156.15240171875,99.492186328125C156.19512171875,100.603026328125,156.19512171875,100.603026328125,156.20543171875,100.948096328125C156.24526171875,101.760536328125,156.43716171875,102.334866328125,156.98126171875,102.961426328125C157.56766171875,103.285826328125,158.09496171875,103.308166328125,158.75006171875,103.183596328125C159.19216171875001,102.912676328125,159.19216171875001,102.912676328125,159.43366171875,102.49999632812501C159.49106171875,102.129266328125,159.49106171875,102.129266328125,159.43366171875,101.816406328125C159.17496171875,101.723236328125,159.17496171875,101.723236328125,158.88676171875,101.679686328125C158.75146171875,101.815036328125,158.75146171875,101.815036328125,158.61336171875,101.953126328125C158.21176171875,102.004396328125,158.21176171875,102.004396328125,157.79306171875,101.953126328125C157.42696171875,101.617676328125,157.38346171875,101.411996328125,157.33196171875,100.913586328125C157.33016171875,100.717506328125,157.33076171875,100.52139632812501,157.33316171875,100.325316328125C157.33306171875,100.169106328125,157.33306171875,100.169106328125,157.33296171875,100.009736328125C157.33336171875,99.790016328125,157.33466171875,99.570306328125,157.33686171875001,99.350596328125C157.34016171875,99.014826328125,157.33976171875,98.679206328125,157.33876171875,98.343426328125C157.33956171875,98.129626328125,157.34056171875,97.91582632812501,157.34176171875,97.702026328125C157.34166171875,97.601896328125,157.34146171875,97.501766328125,157.34136171875,97.398596328125C157.34836171875,96.892626328125,157.36586171875,96.498640328125,157.65626171875,96.074218328125C158.01656171875,95.794012358125,158.21866171875,95.801058468125,158.68166171875,95.809326128125C159.24996171875,95.961549328125,159.39726171875,96.132597328125,159.70706171875,96.621093328125C159.86766171875,96.942186328125,159.85956171875,97.132116328125,159.85716171875,97.489476328125C159.85686171875,97.594266328125,159.85646171875,97.699066328125,159.85616171875,97.807036328125C159.85486171875,97.940166328125,159.85366171875,98.073286328125,159.85236171875,98.210446328125C159.84956171875,98.633426328125,159.84666171875,99.056396328125,159.84376171875,99.492186328125C160.79126171875,99.492186328125,161.73876171875,99.492186328125,162.71486171875,99.492186328125C162.74906171875,100.739746328125,162.74906171875,100.739746328125,162.75566171875,101.128076328125C162.78556171875,101.868336328125,162.89176171875,102.333376328125,163.39846171875,102.910156328125C163.97106171875,103.309536328125,164.64186171875,103.271756328125,165.31256171875,103.183596328125C165.68326171875,102.995306328125,165.68326171875,102.995306328125,165.85946171875,102.636716328125C165.96986171875,102.138076328125,165.96986171875,102.138076328125,165.99616171875,101.679686328125C165.90306171875,101.699426328125,165.81006171875,101.719166328125,165.71416171875,101.739506328125C165.58166171875,101.764876328125,165.44906171875,101.790256328125,165.31256171875,101.816406328125C165.14896171875,101.850246328125,164.98546171875,101.884086328125,164.81696171875,101.918946328125C164.35556171875,101.953126328125,164.35556171875,101.953126328125,164.12566171875,101.820346328125C163.84226171875,101.384336328125,163.88146171875,100.924216328125,163.88126171875,100.420376328125C163.88026171875,100.310296328125,163.87916171875,100.200226328125,163.87816171875,100.086806328125C163.87666171875,99.853976328125,163.87626171875002,99.621146328125,163.87686171875,99.388316328125C163.87696171875,99.032916328125,163.87136171875,98.677936328125,163.86526171875,98.322606328125C163.86456171875,98.096166328125,163.86416171875,97.869716328125,163.86416171875,97.643276328125C163.86196171875,97.537446328125,163.85966171875,97.431606328125,163.85736171874998,97.322566328125C163.86436171875,96.772844328125,163.92416171874999,96.512141328125,164.26176171875,96.070680328125C164.62896171875,95.800781248125,164.62896171875,95.800781248125,165.11606171875,95.792236328125C165.61446171875,95.946292328125,165.81406171875,96.079688328125,166.13286171875,96.484375328125C166.29696171875,96.812586328125,166.28526171875,97.016706328125,166.28296171875,97.382656328125C166.28256171875,97.493006328125,166.28226171875,97.603356328125,166.28186171875,97.717046328125C166.28066171875,97.857306328125,166.27946171874999,97.997576328125,166.27816171875,98.142086328125C166.27526171875,98.587626328125,166.27246171875,99.033156328125,166.26956171875,99.492186328125C167.26216171875,99.492186328125,168.25476171875,99.492186328125,169.27736171875,99.492186328125C169.31156171875,100.662846328125,169.31156171875,100.662846328125,169.31816171875,101.025766328125C169.35136171875,101.799406328125,169.50356171875,102.279906328125,169.96096171875,102.910156328125C170.51946171875,103.317716328125,171.21286171875,103.272836328125,171.87506171875,103.183596328125C172.28776171875,102.911816328125,172.38826171875002,102.745456328125,172.53306171875,102.277836328125C172.58696171875,101.950886328125,172.58696171875,101.950886328125,172.42196171875,101.679686328125C172.35146171875,101.699426328125,172.28096171875,101.719166328125,172.20826171875,101.739506328125C171.02256171875,102.013136328125,171.02256171875,102.013136328125,170.68726171875,101.820646328125C170.40436171875,101.382836328125,170.44666171875,100.920536328125,170.44856171875,100.415576328125C170.44786171875,100.305166328125,170.44716171875,100.194766328125,170.44646171875002,100.081016328125C170.44556171875,99.847616328125,170.44576171875,99.614206328125,170.44686171875,99.380806328125C170.44806171875,99.023956328125,170.44416171875,98.667406328125,170.43976171875,98.310586328125C170.43956171874999,98.083696328125,170.43966171875,97.856816328125,170.44006171875,97.629926328125C170.43846171875,97.523386328125,170.43696171875,97.416846328125,170.43536171875,97.307076328125C170.44166171875,96.822336328125,170.46576171875,96.540608328125,170.76046171875,96.147351328125C171.14496171875,95.873166028125,171.40326171875,95.810410028125,171.87506171875,95.800781248125C172.33036171875,95.980787328125,172.51686171875,96.146066328125,172.78186171875,96.557541328125C173.02126171875,97.164106328125,173.01446171875,97.668726328125,172.99446171875,98.312986328125C172.99256171875,98.426666328125,172.99076171875,98.540336328125,172.98886171875,98.657456328125C172.98406171875,98.935736328125,172.97666171875,99.213976328125,172.96876171875,99.492186328125C173.10096171875,99.485846328125,173.23316171875,99.479496328125,173.36936171874999,99.472966328125C175.13236171875,99.424086328125,176.14566171875,99.731776328125,177.44956171875,100.952836328125C177.99976171875,101.525196328125,178.37186171874998,102.042396328125,178.66826171875,102.781986328125C178.72516171875,102.92173632812501,178.78216171875,103.061496328125,178.84076171875,103.205486328125C179.04496171875002,103.757296328125,179.13826171875002,104.215846328125,179.13946171875,104.805076328125C179.14006171875,104.939366328125,179.14076171875,105.073666328125,179.14136171875,105.212026328125C179.14136171875,105.35923632812501,179.14126171875,105.506446328125,179.14126171875,105.658116328125C179.14176171875,105.81473632812501,179.14226171875,105.971436328125,179.14276171875,106.132836328125C179.14406171875,106.567736328125,179.14466171875,107.00263632812499,179.14506171875001,107.437536328125C179.14556171875,107.906636328125,179.14686171875002,108.375736328125,179.14806171875,108.844836328125C179.15076171875,109.977936328125,179.15216171875,111.111036328125,179.15336171875,112.24403632812499C179.15396171875,112.778036328125,179.15466171875,113.312136328125,179.15546171875,113.846136328125C179.15776171875,115.622136328125,179.15976171875,117.39813632812499,179.16076171875,119.174136328125C179.16096171875,119.63493632812501,179.16126171874998,120.095736328125,179.16146171875,120.556636328125C179.16156171875,120.671136328125,179.16166171875,120.78563632812501,179.16166171875,120.903636328125C179.16286171875,122.757236328125,179.16626171875,124.610836328125,179.17076171875,126.464436328125C179.17526171875,128.36893632812502,179.17776171875,130.273336328125,179.17816171875,132.177836328125C179.17846171875,133.246536328125,179.17966171875,134.315236328125,179.18316171875,135.383936328125C179.18616171875,136.294536328125,179.18726171875,137.205036328125,179.18586171875,138.11553632812502C179.18526171874998,138.579636328125,179.18586171875,139.04353632812501,179.18816171875,139.507636328125C179.19056171875,140.012336328125,179.18966171875002,140.51693632812498,179.18786171875,141.021536328125C179.18936171875,141.16603632812502,179.19086171875,141.310536328125,179.19236171875,141.459336328125C179.17706171875,143.255636328125,178.60066171875,144.719136328125,177.43776171875,146.070536328125C175.79116171875,147.487436328125,174.25136171875,147.678836328125,172.14506171875001,147.672436328125C171.91156171875,147.673236328125,171.67806171875,147.674136328125,171.44466171875,147.675236328125C170.81386171875,147.677736328125,170.18306171875,147.677536328125,169.55226171875,147.676836328125C169.02436171875001,147.676336328125,168.49636171875,147.677236328125,167.96846171875,147.67803632812502C166.72226171875,147.679936328125,165.47616171875,147.679736328125,164.22996171875,147.678136328125C162.94736171875,147.676636328125,161.66466171875,147.678536328125,160.38206171875,147.682236328125C159.27786171875,147.685236328125,158.17376171875,147.686136328125,157.06966171875,147.685336328125C156.41146171875,147.68483632812502,155.75329171875,147.685136328125,155.09510171875,147.687536328125C154.47597171875,147.689636328125,153.85689171875,147.68913632812502,153.23776171875,147.686536328125C153.01153171875,147.686036328125,152.78529171875,147.686436328125,152.55907171875,147.687936328125C150.61059171875,147.699336328125,149.13868171875,147.379836328125,147.69345171875,146.007036328125C146.65348771875,144.913336328125,146.22729845875,143.757836328125,146.24856271875,142.256536328125C146.25429031875,142.099636328125,146.26001831875,141.942736328125,146.26591961875,141.781036328125C146.26900401875,141.618236328125,146.27208781875,141.455536328125,146.27526561875,141.287836328125C146.28323581875,140.890936328125,146.29441451875,140.494336328125,146.30864421875,140.097636328125C146.37088971875,140.152636328125,146.43313471875,140.207536328125,146.49726671875,140.264236328125C146.93412571875,140.645136328125,147.35803171875,140.985436328125,147.85527171875,141.285436328125C148.20336171875,141.539436328125,148.33856171875,141.669736328125,148.46517171875,142.085936328125C148.50312171875,142.345536328125,148.53744171875,142.605636328125,148.56824171875,142.866236328125C148.69920171875,143.628136328125,149.14364171875,144.210536328125,149.70952171875,144.720436328125C150.49874171875,145.272936328125,151.11652171875,145.480736328125,152.07686171875,145.483636328125C152.21817171875,145.484836328125,152.21817171875,145.484836328125,152.36233171875,145.48613632812499C152.67550171875,145.488436328125,152.98859171875,145.487736328125,153.30176171875,145.487136328125C153.52732171875,145.488136328125,153.75288171875,145.489236328125,153.97844171875,145.490636328125C154.58946171875,145.493636328125,155.20045171875,145.494036328125,155.81148171875,145.49383632812498C156.32246171875,145.493736328125,156.83336171875,145.494936328125,157.34436171875,145.496036328125C158.55046171875,145.498736328125,159.75656171875,145.499136328125,160.96266171875,145.49813632812499C162.20466171875,145.49723632812498,163.44666171875,145.500436328125,164.68876171875002,145.505436328125C165.75696171875,145.509636328125,166.82516171875,145.511236328125,167.89346171875,145.510736328125C168.53066171875,145.510436328125,169.16776171875,145.511136328125,169.80496171875,145.514536328125C170.40456171875,145.517536328125,171.00406171875,145.517236328125,171.60366171875,145.514536328125C171.82296171875,145.514036328125,172.04216171875,145.514736328125,172.26136171875,145.516736328125C173.71836171875,145.528836328125,174.86836171875,145.413836328125,175.95956171875,144.370136328125C176.66466171875,143.291736328125,176.87676171875,142.424636328125,176.85036171875,141.139636328125C176.84916171875,140.92373632812502,176.84916171875,140.92373632812502,176.84796171875,140.703436328125C176.84496171875,140.247936328125,176.83806171875,139.792636328125,176.83116171875,139.33713632812498C176.82836171875,139.026636328125,176.82586171875,138.716036328125,176.82366171875,138.405536328125C176.81766171875,137.647936328125,176.80846171875,136.890336328125,176.79696171875,136.132836328125C176.70666171875,136.132836328125,176.61646171875,136.132836328125,176.52346171875,136.132836328125C176.52046171875,136.252536328125,176.52046171875,136.252536328125,176.51746171874998,136.374636328125C176.50716171875,136.744136328125,176.49396171875,137.113536328125,176.48076171875,137.482936328125C176.47616171875,137.671136328125,176.47616171875,137.671136328125,176.47146171875,137.863136328125C176.41446171875,139.334536328125,176.09306171875,140.550236328125,175.01956171875,141.601536328125C173.60626171875,142.676536328125,172.25046171875,142.735936328125,170.53116171875,142.730736328125C170.32666171875,142.73103632812501,170.12226171875,142.731536328125,169.91776171875,142.732136328125C169.36536171875,142.733436328125,168.81286171875,142.732936328125,168.26046171875,142.732036328125C167.68176171875,142.731336328125,167.10306171874998,142.732036328125,166.52446171875,142.732436328125C165.55376171875,142.732936328125,164.58316171875,142.732236328125,163.61246171875,142.73093632812498C162.48946171875,142.729436328125,161.36646171875,142.729936328125,160.24346171875,142.731436328125C159.27876171875,142.732736328125,158.31416171875,142.73283632812502,157.34946171875,142.732136328125C156.77346171875,142.731736328125,156.19748171875,142.731636328125,155.62148171875,142.732536328125C155.08080171875,142.733336328125,154.54014171875,142.73283632812502,153.99947171875,142.731236328125C153.80072171875,142.730836328125,153.60197171875,142.73103632812501,153.40323171875,142.731636328125C153.13277171875,142.732336328125,152.86231171875,142.731236328125,152.59185171875,142.730036328125C152.44028171875,142.729936328125,152.28870171875,142.729836328125,152.13253171875,142.729736328125C151.77739171875,142.695336328125,151.77739171875,142.695336328125,151.50396171875,142.421836328125C151.47725171875,142.096136328125,151.47725171875,142.096136328125,151.48687171875,141.721236328125C151.48933171875,141.596736328125,151.49180171875,141.472336328125,151.49434171875,141.344136328125C151.49752171875,141.248636328125,151.50069171875,141.15313632812502,151.50396171875,141.054736328125C151.42112171875,141.061036328125,151.33829171874999,141.067336328125,151.25295171875,141.073936328125C149.90529171875,141.131936328125,148.86379171875,140.695136328125,147.82750171875,139.840736328125C146.62276871875,138.629336328125,146.26692821875,137.341836328125,146.27116211875,135.69343632812502C146.27044601875,135.554736328125,146.26973001875,135.41603632812502,146.26899251875,135.273136328125C146.26694491875,134.809536328125,146.26684531875,134.34583632812502,146.26675401875,133.882236328125C146.26571201875,133.549336328125,146.26455941875,133.21643632812498,146.26330561875,132.883536328125C146.26030621875,131.979936328125,146.25909941875,131.076236328125,146.25840731875,130.172536328125C146.25796141875,129.607636328125,146.25706901875,129.042836328125,146.25608281875,128.477936328125C146.25340891875,126.912036328125,146.25116571875,125.346136328125,146.25076781875,123.780336328125C146.25074221875,123.680236328125,146.25071671875,123.58013632812501,146.25069011875,123.47693632812499C146.25064001875,123.27403632812499,146.25059051875,123.071136328125,146.25054091875,122.868236328125C146.25051591875,122.767536328125,146.25049081875,122.666836328125,146.25046531875,122.56303632812501C146.25044081875,122.462236328125,146.25041571875,122.36133632812499,146.25039071875,122.257436328125C146.24990671875,120.624336328125,146.24621321875,118.991336328125,146.24110051875,117.358236328125C146.23588561875,115.679136328125,146.23324611875,114.00003632812499,146.23320491875,112.321036328125C146.23312511875,111.379236328125,146.23197561875,110.437436328125,146.22800983875,109.495736328125C146.22429542875,108.609536328125,146.22413165875,107.723336328125,146.22632212875,106.837136328125C146.22657038875,106.512636328125,146.22565820875,106.188136328125,146.22347608875,105.863636328125C146.19977051875,102.108696328125,146.19977051875,102.108696328125,147.55513171875,100.668186328125C148.93764171875,99.492186328125,148.93764171875,99.492186328125,149.58989171875,99.492186328125C149.73131171875,101.79682632812501,149.73131171875,101.79682632812501,149.20537171875,102.448726328125C149.13400171875,102.518166328125,149.06262171875,102.587606328125,148.98908171875,102.659146328125C148.32688171875,103.416406328125,148.30016171875,104.24211632812501,148.30734171875,105.198926328125C148.30638171875,105.39648632812501,148.30638171875,105.39648632812501,148.30540171875,105.598036328125C148.30377171875,106.038136328125,148.30506171875,106.478136328125,148.30635171875,106.918236328125C148.30580171875,107.23423632812501,148.30507171875,107.550236328125,148.30417171875,107.866236328125C148.30230171875,108.723836328125,148.30303171875,109.581436328125,148.30433171875,110.439036328125C148.30537171875,111.336936328125,148.30441171875,112.234836328125,148.30376171875,113.13273632812499C148.30289171875,114.737536328125,148.30424171875,116.342236328125,148.30633171875,117.94693632812499C148.30816171875,119.40033632812501,148.30784171875,120.853736328125,148.30595171875,122.307236328125C148.30375171875,123.99663632812499,148.30294171875,125.686036328125,148.30415171875,127.375436328125C148.30479171875,128.269136328125,148.30488171875,129.162836328125,148.30352171875,130.056536328125C148.30234171875,130.897036328125,148.30316171875,131.737536328125,148.30553171875,132.578036328125C148.30607171875,132.886136328125,148.30592171875,133.194336328125,148.30501171875,133.502436328125C148.30389171875,133.92373632812502,148.30530171875,134.345036328125,148.30734171875,134.766336328125C148.30597171875,134.948336328125,148.30597171875,134.948336328125,148.30457171875,135.133936328125C148.31523171875,136.272536328125,148.56029171875,137.266236328125,149.35170171875,138.114736328125C150.16980171875,138.82093632812501,151.09173171875,139.019436328125,152.15040171875,139.024036328125C152.38496171875,139.02553632812499,152.38496171875,139.02553632812499,152.62424171875,139.027036328125C152.79457171875,139.027336328125,152.96489171875,139.027736328125,153.14038171875,139.02813632812502C153.32075171875,139.02903632812502,153.50112171875,139.029936328125,153.68696171875,139.030836328125C154.28411171875,139.033736328125,154.88126171875,139.035136328125,155.47841171875,139.036436328125C155.68462171875,139.037036328125,155.89082171875,139.037636328125,156.09702171875,139.038136328125C157.06626171875,139.040736328125,158.03546171875,139.042736328125,159.00466171875001,139.043836328125C160.12036171875,139.045236328125,161.23616171875,139.048836328125,162.35186171875,139.054336328125C163.21616171875002,139.058436328125,164.08056171875,139.060436328125,164.94486171875,139.060936328125C165.46026171875,139.061236328125,165.97546171875,139.062436328125,166.49076171875,139.065936328125C166.97626171875,139.069136328125,167.46166171875,139.069636328125,167.94716171875,139.068236328125C168.20796171875,139.068136328125,168.46876171875,139.070736328125,168.72956171875,139.073436328125C169.93426171875,139.066236328125,171.04316171875,138.908536328125,172.00326171875,138.132336328125C172.86126171875,137.040236328125,173.14756171875,136.136436328125,173.14086171875,134.767236328125C173.14136171875,134.646636328125,173.14186171875,134.525936328125,173.14236171875,134.401636328125C173.14376171875,133.999136328125,173.14316171875,133.596536328125,173.14266171875,133.193936328125C173.14326171875,132.904636328125,173.14396171875,132.615336328125,173.14476171875,132.32603632812499C173.14636171875,131.703736328125,173.14706171875,131.081536328125,173.14726171875,130.459236328125C173.14746171875,129.475136328125,173.14996171875,128.490936328125,173.15276171875,127.506836328125C173.15956171875,125.062436328125,173.16376171875,122.618136328125,173.16666171875,120.173736328125C173.16886171875,118.273736328125,173.17206171875,116.373736328125,173.17796171875,114.473736328125C173.18096171875,113.495636328125,173.18206171875,112.517536328125,173.18176171875,111.539536328125C173.18196171875,110.930736328125,173.18396171875,110.321936328125,173.18636171875,109.71323632812499C173.18706171875,109.431236328125,173.18716171875,109.149336328125,173.18646171875,108.867336328125C173.18556171875,108.481836328125,173.18726171875,108.096536328125,173.18956171874999,107.711036328125C173.18876171875002,107.600036328125,173.18786171875,107.48893632812499,173.18696171875,107.374536328125C173.19626171875,106.517536328125,173.34506171875,105.747186328125,173.90286171875,105.064546328125C175.05426171875,104.115306328125,175.05426171875,104.115306328125,175.89066171875,104.15664632812499C176.19486171875,104.187976328125,176.49516171875,104.227726328125,176.79696171875,104.277346328125C176.21826171875,102.922696328125,175.65716171875,102.183006328125,174.33596171875,101.542966328125C174.31586171875,101.689156328125,174.31586171875,101.689156328125,174.29536171875,101.838306328125C174.10836171875,103.036406328125,173.79746171875001,103.890006328125,172.83206171875,104.68749632812501C171.72036171874998,105.440346328125,170.67176171875,105.465746328125,169.36436171875,105.448696328125C169.15536171875,105.448506328125,168.94646171875002,105.448616328125,168.73746171875,105.449006328125C168.17396171875,105.449196328125,167.61056171875,105.44519632812501,167.04706171875,105.440406328125C166.45686171875,105.436116328125,165.86656171875,105.435726328125,165.27626171875,105.434916328125C164.16026171875,105.432796328125,163.04416171875,105.427196328125,161.92816171875,105.420326328125C160.65686171875,105.412666328125,159.38556171875,105.408926328125,158.11426171875002,105.405496328125C155.50061171875,105.39836632812501,152.88706171875,105.386216328125,150.27349171875,105.371096328125C150.27349171875,104.558986328125,150.27349171875,103.746876328125,150.27349171875,102.910156328125C150.45396171875,103.000386328125,150.63443171875,103.090626328125,150.82036171875,103.183596328125C151.47860171875,103.275636328125,152.02074171875,103.270336328125,152.61480171875,102.961426328125C152.93652171875,102.553916328125,152.92873171875,102.323196328125,152.87114171875,101.816406328125C152.73579171875,101.771286328125,152.60044171875,101.726176328125,152.46099171875,101.679686328125C152.32564171875,101.769926328125,152.19028171875,101.860156328125,152.05083171875,101.953126328125C151.64068171875,102.004396328125,151.64068171875,102.004396328125,151.23052171875,101.953126328125C150.87306171875,101.620916328125,150.82162171875,101.417546328125,150.76729171875,100.928306328125C150.76459171875,100.738896328125,150.76426171875,100.549446328125,150.76589171875,100.360036328125C150.76550171875,100.259246328125,150.76510171875,100.158466328125,150.76470171875,100.054636328125C150.76442171875,99.841926328125,150.76517171875,99.629216328125,150.76689171875,99.416516328125C150.76908171875,99.092116328125,150.76691171875,98.767956328125,150.76429171875,98.443566328125C150.76456171875,98.236436328125,150.76508171875,98.029316328125,150.76589171875,97.822186328125C150.76506171875,97.725756328125,150.76423171875,97.629316328125,150.76337171875,97.529966328125C150.77187171875,96.930176328125,150.86762171875,96.553869328125,151.23052171875,96.074218328125C151.69255171875,95.723710128125,152.05487171875,95.779172428125,152.59771171875,95.937500328125Z" fill="#010102" fill-opacity="1" style="mix-blend-mode:passthrough"/></g><g><path d="M122.51953296875,123.69140625C122.86647296875,124.03835125,122.93145296875,124.33547425,123.08349296875,124.80224625C123.65234296875,126.46477625,124.43873296875,128.04947625,125.52734296875,129.43359625C125.63679296875,129.57546625,125.74623296875001,129.71733625,125.85899296875,129.86350625C128.00417296875,132.56776625,131.37379296875,134.50110625,134.80549296875,134.97440625C138.23339296875,135.34300625,141.36129296875,134.97430625,144.53129296875,133.67187625C144.66659296875,133.62675625,144.80199296875,133.58164625,144.94139296875,133.53515625C144.94139296875,133.98630625,144.94139296875,134.43750625,144.94139296875,134.90230625C140.76059296875,136.86340625,136.03709296875,137.09070625,131.70319296875,135.53520625C130.93649296875,135.24530625,130.20959296875,134.88880625,129.49219296875,134.49220625C130.61569296875,136.18320625,132.26459296875,137.01740625,134.22739296875,137.44100625C135.27809296875,137.63610625,136.30349296875,137.68450625,137.37059296875,137.67940625C137.53809296875,137.67880625,137.70549296875,137.67810625,137.87799296875,137.67740625C140.23529296875,137.64720625,142.76269296875,137.37490625,144.66799296875,135.85940625C144.75819296875,135.85940625,144.84839296875,135.85940625,144.94139296875,135.85940625C144.94139296875,137.52870625,144.94139296875,139.19800625,144.94139296875,140.91800625C143.92619296875,141.19480625,142.99119296875,141.42010625,141.95919296875,141.55030625C141.82789296875,141.56740625,141.69659296875,141.58440625,141.56119296875,141.60200625C140.54739296875,141.73040625,139.53739296875,141.83660625,138.51559296875,141.87500625C138.25149296875,141.88580625,138.25149296875,141.88580625,137.98209296875,141.89690625C132.47059296875,142.04750625,126.33893296875,140.65630625,122.14782296875,136.89280625C120.25350296875,135.06980625,119.12362836875,132.96757625,119.05029296875,130.30517625C119.12768206875,127.74514625,120.38140296875,125.75344625,122.10937296875,123.96484425C122.24472296875,123.87460925,122.38008296875,123.78437505,122.51953296875,123.69140625Z" fill="#020202" fill-opacity="1" style="mix-blend-mode:passthrough"/></g><g><path d="M124.16015559765626,119.1796875C125.25720259765625,119.2476203,126.35011259765625,119.3191065,127.44140259765625,119.4531255C127.46308259765625,119.6050435,127.48476259765626,119.7569615,127.50709259765625,119.9134825C127.76680259765625,121.6159275,128.16787259765624,123.0425475,129.49218259765624,124.2382775C130.98148259765625,125.3274675,132.45829259765625,125.6569175,134.27731259765625,125.4687475C135.91191259765625,125.1712375,137.05621259765624,124.4003175,138.03661259765624,123.0718975C138.51061259765626,122.2936775,138.76231259765626,121.4380175,138.92581259765626,120.5468775C139.01531259765625,120.5567475,139.10481259765626,120.5666175,139.19711259765626,120.5767775C139.60771259765625,120.6185375,140.01811259765626,120.6527075,140.42971259765625,120.6835975C140.57531259765625,120.6945175,140.72081259765625,120.7054475,140.87081259765625,120.7167075C141.74001259765626,120.7721175,141.74001259765626,120.7721175,142.47191259765626,120.3588875C142.56501259765625,120.2404575,142.65801259765624,120.1220215,142.75391259765624,119.9999995C143.34281259765623,119.6657405,143.87001259765626,119.6839015,144.53121259765624,119.7265625C144.66661259765624,119.8167965,144.80191259765624,119.9070315,144.94141259765624,119.9999995C144.99071259765626,120.3650675,144.99071259765626,120.3650675,144.98801259765625,120.8342675C144.98791259765625,121.0094275,144.98791259765625,121.1845875,144.98791259765625,121.3650575C144.98581259765626,121.5569575,144.98361259765625,121.7488675,144.98141259765626,121.9407675C144.98071259765624,122.1365475,144.98011259765624,122.3323375,144.97971259765626,122.5281275C144.97811259765626,123.0437575,144.97411259765624,123.5593375,144.96961259765624,124.07494750000001C144.96541259765624,124.60095749999999,144.96351259765626,125.1269775,144.96141259765625,125.6529975C144.95701259765625,126.6853575,144.95001259765624,127.7176675,144.94141259765624,128.7499975C144.68431259765626,128.8381575,144.42691259765624,128.9256775,144.16951259765625,129.0129275C144.02621259765624,129.0617275,143.88301259765626,129.1105375,143.73531259765625,129.1608175C143.08941259765623,129.3630875,142.43771259765626,129.4838875,141.77121259765624,129.5959875C141.64551259765625,129.6183875,141.51971259765625,129.6408875,141.39021259765624,129.6640875C136.51551259765625,130.5173875,131.42098259765626,129.9186875,127.18506259765626,127.2546375C125.72719259765626,126.2180575,124.14874159765625,124.7477175,123.66348159765624,122.9495975C123.47630399765625,121.6373675,123.43867159765625,120.3392175,124.16015559765626,119.1796875Z" fill="#010101" fill-opacity="1" style="mix-blend-mode:passthrough"/></g><g><path d="M136.7382602734375,106.73828125C138.6790902734375,106.93796425,140.1122302734375,108.23439125,141.3738802734375,109.62273125C142.2599202734375,110.72349125,142.8199402734375,112.06644125,142.8115702734375,113.48289125C142.7095402734375,114.12811125,142.3331302734375,114.57844125,141.9335702734375,115.07812125C141.7965502734375,115.26019125,141.6597402734375,115.44241124999999,141.5234202734375,115.62500125C141.3429502734375,115.57988125,141.1624802734375,115.53477125,140.9765402734375,115.48828125C141.0061502734375,115.40704125,141.0357602734375,115.32579125,141.0662702734375,115.24208125C141.4040002734375,114.23668125,141.6502802734375,113.17729125,141.1816202734375,112.18140125C141.1139502734375,112.09962125,141.0462702734375,112.01785125,140.9765402734375,111.93359125C140.7058402734375,112.00127125,140.7058402734375,112.00127125,140.4296702734375,112.07031125C140.4376002734375,112.20249125,140.4455302734375,112.33467125,140.4537002734375,112.47085125C140.4947502734375,113.65543125,140.4189202734375,114.46700125,139.7460702734375,115.48828125C139.6107202734375,115.48828125,139.4753702734375,115.48828125,139.3359202734375,115.48828125C139.3308102734375,115.37108125,139.3257002734375,115.25388125,139.3204302734375,115.13313125C139.2696902734375,114.25070125,139.2080702734375,113.53731125,138.7890402734375,112.75391125C138.4506602734375,112.82158125,138.4506602734375,112.82158125,138.1054502734375,112.89062125C138.1392902734375,113.04290125,138.1392902734375,113.04290125,138.1738102734375,113.19824125C138.3378502734375,114.42856125,138.3567002734375,115.37052125,137.6952902734375,116.44531125C136.1559702734375,116.22895125,136.1559702734375,116.22895125,135.6621352734375,115.82687125C134.7308988734375,114.45178125,134.6351242734375,112.47955125,134.9091142734375,110.89592125C135.2596982734375,109.41100125,135.8913402734375,108.00866125,136.7382602734375,106.73828125Z" fill="#020202" fill-opacity="1" style="mix-blend-mode:passthrough"/></g><g><path d="M161.62109875,118.0859375C161.98305875,118.4383775,162.29707875,118.7581125,162.57812875,119.1796875C162.44277875,119.2699175,162.30741875,119.3601575,162.16796875,119.4531275C162.12238875,119.8690175,162.12238875,119.8690175,162.16796875,120.2734375C162.31210875,120.4463475,162.31210875,120.4463475,162.63793875,120.4443375C162.75355875,120.4330575,162.86916875,120.4217775,162.98827875,120.4101575C163.12363875,120.2071275,163.12363875,120.2071275,163.26171875,119.9999975C163.82806875,120.1887875,163.98933875,120.4919475,164.35546875,120.9570275C164.13751875,121.4918875,163.78959875,121.8282275,163.38134875,122.2302275C163.28042875,122.3298275,163.28042875,122.3298275,163.17746875,122.4314275C162.71140875,122.8877975,162.23022875,123.3214675,161.73431875,123.74480750000001C161.40121875,124.0380475,161.09397875,124.3535675,160.78328875,124.6701675C160.53753875,124.9118575,160.28451875,125.1378175,160.02319875,125.3624775C159.42551875,125.8820675,158.84745875,126.4206775,158.27148875,126.9641175C158.17208875,127.0576075,158.07268875,127.1511075,157.97027875,127.2474275C157.72871875,127.4746775,157.48732875,127.7021075,157.24609875,127.9296875C156.53845875,127.6218975,156.09166875,127.0647075,155.57128875,126.5112275C155.46942275,126.4061975,155.36755675,126.3011575,155.26260375,126.1929375C155.16637775,126.0910675,155.07015075,125.9891975,154.97100875,125.8842475C154.88284475,125.7914775,154.79468075,125.6987075,154.70384575,125.6031375C154.51171875,125.3320375,154.51171875,125.3320375,154.51171875,124.7851575C154.74243175,124.4962275,154.74243175,124.4962275,155.05859375,124.1955575C155.16010775,124.0973975,155.26162075,123.9992275,155.36621075,123.8980875C155.66360875,123.6264575,155.96388875,123.3602575,156.26769875,123.0959275C156.81070875,122.6228975,157.33773875,122.1349675,157.86132875,121.6406275C158.05126875,121.4618875,158.24121875,121.2831575,158.43116875,121.1044275C158.52798875,121.0132275,158.62480875,120.9220275,158.72456875,120.8280575C159.02828875,120.5423075,159.33257875,120.2571675,159.63706875,119.9722275C159.73611875,119.8795275,159.83515875,119.7868275,159.93720875,119.6913175C160.12747875,119.5132675,160.31777875,119.3352375,160.50811875,119.1572575C160.59429875,119.0765395,160.68047875,118.9958225,160.76926875,118.9126585C160.84484875,118.8419425,160.92041875,118.7712265,160.99827875,118.6983685C161.20940875,118.4975505,161.41597875,118.2928705,161.62109875,118.0859375Z" fill="#020202" fill-opacity="1" style="mix-blend-mode:passthrough"/></g><g><path d="M170.6872525,112.14721463671874C171.2304625,112.63989163671874,171.5716425,113.14290763671875,171.6234625,113.88984763671876C171.5343725,115.17840763671875,170.6662025,115.91687763671875,169.7900425,116.77856763671875C169.6908125,116.87769763671875,169.5915925,116.97682763671875,169.4893625,117.07896763671874C168.9249325,117.63887763671875,168.3456225,118.17263763671875,167.7435325,118.69165763671874C167.3134025,119.07067763671876,166.9232825,119.48759763671875,166.5269525,119.90119763671875C166.2695325,120.13671763671874,166.2695325,120.13671763671874,165.9960925,120.13671763671874C165.9509725,120.27206763671875,165.9058625,120.40741763671875,165.8593725,120.54687763671875C165.2385325,120.04006763671875,164.7047425,119.52062763671876,164.1877725,118.90891763671875C163.8720925,118.54942763671875,163.5285715,118.22454763671875,163.1773375,117.90008763671875C162.9534575,117.63446763671875,162.8919011,117.47312763671874,162.8515625,117.12890763671875C162.9943895,116.90630763671875,162.9943895,116.90630763671875,163.2184605,116.69044763671874C163.2996735,116.61072763671875,163.3808865,116.53101763671874,163.4645605,116.44888763671875C163.5527125,116.36592763671875,163.6408655,116.28297763671875,163.7316895,116.19750763671875C163.8202825,116.11164763671874,163.9088725,116.02578763671875,164.0001525,115.93731763671875C164.5213625,115.43542763671876,165.0534025,114.94854763671876,165.6062325,114.48157763671875C165.9076225,114.21516763671875,166.1852825,113.93058763671876,166.4660625,113.64257763671876C167.7077625,112.38800763671875,168.8980025,111.30322363671876,170.6872525,112.14721463671874Z" fill="#020202" fill-opacity="1" style="mix-blend-mode:passthrough"/></g><g><path d="M144.94136875,113.7109375C144.94136875,115.2900375,144.94136875,116.8691375,144.94136875,118.4960975C144.44516875,118.4960975,143.94886875,118.4960975,143.43749875,118.4960975C142.59102875,118.6993975,142.59102875,118.6993975,141.90768875,119.1897075C141.40886875,119.5316675,141.15777875,119.4941975,140.56106875,119.4360375C140.41957875,119.4234675,140.41957875,119.4234675,140.27522875,119.4106375C139.96178875,119.3820475,139.64895875,119.3491975,139.33593875,119.3164075C139.11152875,119.2953075,138.88708875,119.2744875,138.66262875,119.2539275C138.07731875,119.1994175,137.49253875,119.1406275,136.90784875,119.0799575C136.54412875,119.0423375,136.18032875,119.0057675,135.81649875,118.9692675C135.58435875,118.9454775,135.35221875,118.9216275,135.12008875,118.8977075C135.01172875,118.8868775,134.90336875,118.8760475,134.79172875,118.8648975C134.03529675,118.7852275,134.03529675,118.7852275,133.73046875,118.6328175C133.93483375,118.1126175,134.23556575,117.8587275,134.68749975,117.5390675C135.36860875,117.3120275,136.21188875,117.2336575,136.88407875,117.5246475C136.96285875,117.5745175,137.04163875,117.6243975,137.12279875,117.6757775C137.59692875,117.9732775,137.83161875,118.0026175,138.37890875,117.9492175C138.41274875,117.8702675,138.44657875,117.7913075,138.48144875,117.7099575C138.76520875,117.1991875,139.05316875,116.9041575,139.60937875,116.7187475C140.58672875,116.6251575,141.15451875,116.6765675,141.93359875,117.2656275C142.22224875,117.2862575,142.22224875,117.2862575,142.48046875,117.1289075C142.62860875,116.7584775,142.62860875,116.7584775,142.71972875,116.3085975C143.01957875,115.2300675,143.54622875,114.4932165,144.48906875,113.8829045C144.80466875,113.7109375,144.80466875,113.7109375,144.94136875,113.7109375Z" fill="#030303" fill-opacity="1" style="mix-blend-mode:passthrough"/></g><g><path d="M152.9927525,131.87532938046874C153.1340325,131.87454868046876,153.2753125,131.87376798046876,153.4208725,131.87296368046876C153.5764925,131.87281088046876,153.7321125,131.87265798046874,153.8924425,131.87250058046874C154.1375425,131.87148238046876,154.1375425,131.87148238046876,154.3876025,131.87044358046876C154.8364525,131.86878648046874,155.2853025,131.86776808046875,155.7341625,131.86716088046876C156.0144325,131.86676038046875,156.2947125,131.86619918046875,156.5749825,131.86558808046874C157.4514825,131.86371838046875,158.3279825,131.86239678046874,159.2044825,131.86186908046875C160.2170925,131.86125608046876,161.2296825,131.85885518046874,162.2422625,131.85489628046875C163.0245625,131.85194394046874,163.8067625,131.85056198046874,164.5889625,131.85037904046874C165.0564625,131.85023555046874,165.5238625,131.84942368046876,165.9912625,131.84698573046876C166.5124625,131.84466473046874,167.0335625,131.84490749046876,167.5546625,131.84579766046875C167.7100625,131.84453782046876,167.8653625,131.84327799046875,168.0254625,131.84197998046875C168.1670625,131.84274138746875,168.3087625,131.84350280046874,168.45476250000002,131.84428728046876C168.5779625,131.84408677046875,168.70126249999998,131.84388626046874,168.8282625,131.84367968046874C169.1406625,131.89453038046875,169.1406625,131.89453038046875,169.3896625,132.08085198046874C169.5507625,132.30468698046874,169.5507625,132.30468698046874,169.5336625,132.65502898046876C169.4140625,132.98827998046875,169.4140625,132.98827998046875,169.0038625,133.26171998046874C168.6965625,133.29650998046876,168.6965625,133.29650998046876,168.3302625,133.29735998046874C168.1217625,133.29880998046875,168.1217625,133.29880998046875,167.9091625,133.30029998046874C167.7567625,133.29995998046874,167.6043625,133.29961998046875,167.4474625,133.29926998046875C167.2868625,133.29996998046875,167.1263625,133.30066998046874,166.9609625,133.30138998046874C166.5205625,133.30295998046876,166.0802625,133.30329998046875,165.6398625,133.30294998046875C165.2721625,133.30279998046876,164.9045625,133.30346998046875,164.5369625,133.30412998046876C163.6696625,133.30563998046875,162.8023625,133.30569998046875,161.93506250000002,133.30487998046874C161.0403425,133.30404998046876,160.1456225,133.30572998046875,159.2508825,133.30864998046874C158.4826925,133.31104998046874,157.7145125,133.31186998046874,156.9463125,133.31142998046874C156.4875025,133.31117998046875,156.0287225,133.31153998046875,155.5699125,133.31343998046876C155.0582925,133.31511998046875,154.5467325,133.31420998046875,154.0351025,133.31261998046875C153.8069925,133.31418998046874,153.8069925,133.31418998046874,153.5742625,133.31578998046874C153.3652325,133.31434998046876,153.3652325,133.31434998046876,153.1519725,133.31287998046875C152.9705425,133.31291998046876,152.9705425,133.31291998046876,152.7854415,133.31294998046874C152.3972385,133.25165998046876,152.2062975,133.10778998046874,151.9140625,132.85155998046875C151.965332,132.44994998046874,151.965332,132.44994998046874,152.0507815,132.03124898046875C152.3892175,131.86203098046875,152.6140935,131.87657908046876,152.9927525,131.87532938046874Z" fill="#080908" fill-opacity="1" style="mix-blend-mode:passthrough"/></g><g><path d="M152.99278505859374,108.76986063046876C153.13406505859376,108.76907993046875,153.27534505859376,108.76829923046876,153.42090505859375,108.76749493046874C153.57651505859374,108.76734213046875,153.73213505859374,108.76718923046874,153.89247505859376,108.76703183046875C154.13757505859374,108.76601363046875,154.13757505859374,108.76601363046875,154.38762505859376,108.76497483046874C154.83647505859375,108.76331773046876,155.28532505859374,108.76229933046875,155.73418505859374,108.76169213046875C156.01446505859374,108.76129163046875,156.29473505859374,108.76073043046875,156.57501505859375,108.76011933046875C157.45151505859374,108.75824963046875,158.32800505859376,108.75692803046876,159.20451505859376,108.75640033046875C160.21712505859375,108.75578733046875,161.22970505859374,108.75338643046875,162.24228505859375,108.74942753046875C163.02458505859374,108.74647519046874,163.80678505859376,108.74509323046875,164.58898505859375,108.74491029046875C165.05648505859375,108.74476680046875,165.52388505859375,108.74395493046875,165.99128505859375,108.74151698046875C166.51248505859374,108.73919598046875,167.03358505859376,108.73943874046876,167.55478505859375,108.74032891046875C167.71008505859376,108.73906907046874,167.86538505859374,108.73780924046875,168.02548505859374,108.73651123046875C168.16708505859376,108.73727263746875,168.30878505859374,108.73803405046876,168.45478505859376,108.73881853046875C168.57798505859375,108.73861802046875,168.70128505859375,108.73841751046875,168.82828505859374,108.73821093046875C169.14068505859376,108.78906163046875,169.14068505859376,108.78906163046875,169.38968505859376,108.97538323046875C169.55078505859376,109.19921823046874,169.55078505859376,109.19921823046874,169.53368505859376,109.54956023046876C169.41408505859374,109.88281123046875,169.41408505859374,109.88281123046875,169.00388505859374,110.15625123046875C168.69408505859374,110.19142123046875,168.69408505859374,110.19142123046875,168.32418505859374,110.19281123046875C168.18378505859374,110.19398123046875,168.04348505859375,110.19514123046875,167.89898505859375,110.19634123046875C167.66818505859374,110.19616123046875,167.66818505859374,110.19616123046875,167.43278505859374,110.19597123046876C167.27068505859376,110.19689123046875,167.10858505859375,110.19781123046874,166.94158505859374,110.19875123046874C166.49698505859374,110.20091123046875,166.05238505859376,110.20181123046875,165.60778505859375,110.20198123046875C165.23668505859376,110.20224123046874,164.86568505859375,110.20325123046875,164.49468505859375,110.20422123046875C163.61948505859374,110.20644123046876,162.74438505859376,110.20711123046875,161.86918505859376,110.20692123046875C160.96589505859376,110.20675123046875,160.06263505859374,110.20964123046875,159.15935505859375,110.21396123046875C158.38407505859374,110.21753123046875,157.60882505859374,110.21900123046875,156.83354505859376,110.21882123046875C156.37037505859374,110.21875123046875,155.90724505859376,110.21954123046875,155.44408505859374,110.22243123046874C154.92783505859376,110.22509123046875,154.41169505859375,110.22432123046875,153.89544505859374,110.22267123046875C153.66466505859376,110.22498123046876,153.66466505859376,110.22498123046876,153.42923505859375,110.22733123046875C153.28891505859374,110.22618123046875,153.14860505859374,110.22503123046874,153.00403505859376,110.22385123046875C152.88194205859375,110.22400123046874,152.75985105859374,110.22415123046875,152.63406005859375,110.22430123046875C152.32424405859376,110.15625123046875,152.32424405859376,110.15625123046875,152.07507705859376,109.90155123046875C151.91408815859376,109.60937423046875,151.91408815859376,109.60937423046875,151.93972285859374,109.24194223046875C152.13132705859374,108.69660803046875,152.47285305859376,108.77157663046874,152.99278505859374,108.76986063046876Z" fill="#050505" fill-opacity="1" style="mix-blend-mode:passthrough"/></g><g><path d="M128.9111484921875,110.13063945097656C130.3108944921875,110.14290455097657,131.7371144921875,110.32103125097656,133.0468944921875,110.83986825097656C133.1714944921875,110.88463325097656,133.2960944921875,110.92939725097656,133.4244644921875,110.97551925097656C133.7304844921875,111.25002725097656,133.7304844921875,111.25002725097656,133.7844944921875,111.52656725097657C133.7980044921875,111.87826725097656,133.7899244921875,112.22293725097656,133.7732044921875,112.57448725097656C133.7701244921875,112.69653725097656,133.7670444921875,112.81857725097656,133.7638644921875,112.94431725097657C133.7558044921875,113.24567725097656,133.7445644921875,113.54655725097656,133.7304844921875,113.84767725097656C133.6117044921875,113.86107725097656,133.4929144921875,113.87446725097656,133.3705344921875,113.88826725097657C131.9967344921875,114.05839725097657,131.9967344921875,114.05839725097657,130.9417344921875,114.89005725097657C130.7226744921875,115.07814725097656,130.7226744921875,115.07814725097656,130.4627544921875,115.11215725097657C130.3675244921875,115.10428725097657,130.2723044921875,115.09640725097657,130.1741944921875,115.08829725097657C130.0706544921875,115.08080725097656,129.9671144921875,115.07331725097656,129.8604344921875,115.06559725097657C129.7530144921875,115.05563725097656,129.6456044921875,115.04568725097656,129.5349244921875,115.03542725097657C129.4259244921875,115.02705725097657,129.3169244921875,115.01868725097657,129.2046144921875,115.01005725097656C128.9357344921875,114.98912725097657,128.6670654921875,114.96553725097657,128.3984524921875,114.94142725097656C127.9467356921875,113.91753725097657,127.9671247621875,112.92260725097657,127.9712066621875,111.82253725097657C127.9706779521875,111.67739725097657,127.9701492411875,111.53226725097656,127.9696044921875,111.38273725097656C127.9697807081875,111.24500725097656,127.9699569881875,111.10727625097657,127.9701385501875,110.96537125097656C127.9702927301875,110.83957025097656,127.9704469761875,110.71376825097656,127.9706058521875,110.58415425097657C128.0065327921875,109.99285125097656,128.4053394921875,110.13366465097656,128.9111484921875,110.13063945097656Z" fill="#020202" fill-opacity="1" style="mix-blend-mode:passthrough"/></g><g><path d="M129.62890625,119.7265625C132.00126625,119.8833915,134.37063625,120.0556825,136.73828625,120.2734375C136.63749625,121.4204625,136.27075625,121.9578325,135.47363625,122.7771025C134.66190625,123.2752025,133.72310625,123.5215725,132.77343625,123.4179725C131.54989625,123.1207025,130.74972625,122.62164250000001,130.07431025,121.5466325C129.74435525,120.9400025,129.62890625,120.4236915,129.62890625,119.7265625Z" fill="#030303" fill-opacity="1" style="mix-blend-mode:passthrough"/></g><g><path d="M153.11313677734375,113.54019165039062C153.27849677734375,113.54166628039063,153.27849677734375,113.54166628039063,153.44719677734375,113.54317069039062C153.56324677734375,113.54313076039062,153.67930677734375,113.54309083039063,153.79887677734374,113.54304969039063C154.18356677734374,113.54324062039062,154.56821677734376,113.54537019039063,154.95290677734374,113.54750991039063C155.21918677734374,113.54801973039062,155.48547677734376,113.54840904039062,155.75176677734376,113.54868233039062C156.45348677734376,113.54972761039062,157.15518677734374,113.55241495039063,157.85689677734376,113.55543735039062C158.57260677734374,113.55823165039062,159.28831677734374,113.55948275039063,160.00401677734374,113.56086135039062C161.40895677734375,113.56379615039063,162.81389677734376,113.56846465039062,164.21879677734375,113.57421275039063C163.92119677734374,114.21001265039062,163.63429677734376,114.62996165039063,162.98829677734375,114.94140165039063C162.18439677734375,115.06144165039062,161.38771677734374,115.04697165039063,160.57652677734376,115.03593165039062C160.33978677734376,115.03544165039062,160.10304677734376,115.03525165039062,159.86630677734374,115.03536165039063C159.37164677734376,115.03472165039062,158.87711677734376,115.03133165039063,158.38248677734376,115.02581165039062C157.74816677734376,115.01882165039062,157.11398677734374,115.01728165039063,156.47963677734376,115.01759165039063C155.99147677734376,115.01748165039062,155.50335677734375,115.01523165039063,155.01520677734376,115.01226165039063C154.78124677734374,115.01095165039062,154.54728677734374,115.01014165039062,154.31332677734375,115.00984165039063C153.98701677734374,115.00895165039063,153.66085677734375,115.00536165039063,153.33457677734376,115.00098165039063C153.23783677734374,115.00117165039063,153.14109677734376,115.00135165039063,153.04142677734376,115.00154165039062C152.64725677734376,114.99379165039062,152.38343877734374,114.98238165039062,152.05444677734374,114.75449165039062C151.91411517734375,114.53124465039062,151.91411517734375,114.53124465039062,151.93974987734376,114.18090265039062C152.15961877734375,113.52129535039063,152.47089877734376,113.54259471039063,153.11313677734375,113.54019165039062Z" fill="#080909" fill-opacity="1" style="mix-blend-mode:passthrough"/></g><g><path d="M130.85937875,116.71872420214844C131.48184875,117.15435220214843,132.05831875,117.64776220214844,132.36327875,118.35935220214844C132.31816875,118.44958220214843,132.27304875,118.53982220214844,132.22656875,118.63278220214843C129.83534875,118.40720220214844,127.44413875,118.18161220214844,124.98046875,117.94919220214844C126.54187875,116.12754670214844,128.66997875,115.55422620214844,130.85937875,116.71872420214844Z" fill="#040404" fill-opacity="1" style="mix-blend-mode:passthrough"/></g><g><path d="M163.63075,125.23266817699219C163.78287,125.23253186699219,163.93498,125.23239555699219,164.09171,125.23225511699219C164.41196,125.23289298699218,164.73222,125.23554036699218,165.05245,125.24007826699219C165.54309,125.2465520669922,166.03333,125.24569636699219,166.52401,125.2438833669922C166.83564,125.2454076669922,167.14726,125.24735146699219,167.45888,125.24975806699219C167.60557,125.2495087669922,167.75227,125.2492595669922,167.90341,125.24900286699219C168.03987,125.25160926699219,168.17634,125.25421566699218,168.31694,125.25690106699219C168.49659,125.25879076699219,168.49659,125.25879076699219,168.67988,125.26071876699218C169.10345,125.35390116699219,169.27321,125.55524916699218,169.55078,125.8788781669922C169.31153,126.54538616699219,169.31153,126.54538616699219,169.00391,126.69918616699219C168.74699,126.71164616699218,168.48962,126.71525616699219,168.2324,126.71471616699219C168.07092,126.71470616699219,167.90945,126.71468616699218,167.74308,126.71467616699219C167.56805,126.71397616699218,167.39301,126.71326616699218,167.21268,126.71254616699218C167.03402,126.71234616699219,166.85537,126.71215616699219,166.6713,126.71195616699218C166.19615,126.71143616699219,165.721,126.71008616699218,165.24585,126.70857616699219C164.76107,126.70717616699218,164.27629,126.70655616699219,163.7915,126.7058661669922C162.84017,126.70439616699218,161.888834,126.70206616699218,160.9375,126.69918616699219C161.041192,126.12151316699219,161.275158,125.86437316699218,161.724221,125.50207516699219C162.32358,125.17007096699218,162.96132,125.22111051699218,163.63075,125.23266817699219Z" fill="#070807" fill-opacity="1" style="mix-blend-mode:passthrough"/></g><g><path d="M153.14453,126.15234375C153.59005,126.34736775,153.88315,126.58533775,154.22333,126.93099975C154.36873,127.07771875,154.36873,127.07771875,154.51706,127.22740375C154.61681,127.32944375,154.71656,127.43148375,154.81934,127.53662375C154.9212,127.63972375,155.02307,127.74282375,155.12802,127.84904375C155.37894,128.10318375,155.62921,128.35794375,155.87891,128.61328375C155.74219,129.02343375,155.74219,129.02343375,155.35884,129.22277375C155.19019,129.29258375,155.02079,129.36060375,154.85085,129.42718375C154.7613,129.46334375,154.67175,129.49950375,154.57949,129.53676375C154.38981,129.61287375,154.19981,129.68821375,154.00954,129.76284375C153.71873,129.87726375,153.42936,129.99489375,153.13999,130.11291375C152.95555,130.18645375,152.77104,130.25980375,152.58644,130.33294375C152.45674,130.38590375,152.45674,130.38590375,152.32443,130.43993375C151.867225,130.61654375,151.558344,130.72038375,151.09375,130.52734375C151.341384,129.96998375,151.589511,129.41284375,151.838093,128.85591375C151.922565,128.66647375,152.006903,128.47696375,152.091103,128.28740375C152.21225,128.01473375,152.33387,127.74228375,152.4556,127.46986375C152.52863,127.30590375,152.60166,127.14194975,152.6769,126.97302375C152.87109,126.56249975,152.87109,126.56249975,153.14453,126.15234375Z" fill="#040404" fill-opacity="1" style="mix-blend-mode:passthrough"/></g><g><path d="M122.99807372265624,128.86962890625C123.33987072265624,128.88671870625,123.33987072265624,128.88671870625,123.47659072265625,129.02343790625C123.48184072265624,129.21118490625,123.47821072265624,129.39919690625,123.47071072265625,129.58686790625C123.39719072265625,131.68282890625,123.39719072265625,131.68282890625,124.33108072265625,133.50951890625C124.57034072265625,133.80859890625,124.57034072265625,133.80859890625,124.62161072265624,134.17602890625C124.57034072265625,134.49218890625,124.57034072265625,134.49218890625,124.29690072265625,134.76562890625C123.90116072265624,134.75600890625,123.90116072265624,134.75600890625,123.47659072265625,134.62890890625C122.37869572265625,133.47344890625,122.03006692265625,131.90250890625,122.06827940265624,130.35590890625C122.13585322265625,129.73897190625,122.27672072265625,128.90569660625,122.99807372265624,128.86962890625Z" fill="#F8F8F8" fill-opacity="1" style="mix-blend-mode:passthrough"/></g><g><path d="M152.8447608828125,119.83224487304688C153.0689598828125,119.83228825664688,153.2931598828125,119.83383819304687,153.5173398828125,119.83658409304688C153.6942898828125,119.83716444304687,153.6942898828125,119.83716444304687,153.8747998828125,119.83775651304687C154.2523398828125,119.83928964304687,154.6298398828125,119.84272217304688,155.0073598828125,119.84619717304687C155.2629998828125,119.84756817304688,155.5186298828125,119.84881587304687,155.7742698828125,119.84993557304688C156.4016198828125,119.85295377304688,157.0289498828125,119.85767567304687,157.6562898828125,119.86328697304687C156.5608198828125,121.19610487304688,156.5608198828125,121.19610487304688,155.8695598828125,121.28354487304688C155.6286198828125,121.28424487304687,155.6286198828125,121.28424487304687,155.3827998828125,121.28494487304687C155.1198998828125,121.28574487304688,155.1198998828125,121.28574487304688,154.8516798828125,121.28655487304688C154.7608398828125,121.28569487304688,154.6699998828125,121.28483487304688,154.5764098828125,121.28394487304688C154.2985098828125,121.28174487304688,154.0208698828125,121.28393487304687,153.7429798828125,121.28655487304688C153.5678898828125,121.28602487304687,153.3927898828125,121.28549487304687,153.2123898828125,121.28494487304687C153.0519198828125,121.28448487304688,152.8914398828125,121.28402487304687,152.7260998828125,121.28354487304688C152.3242548828125,121.23047487304687,152.3242548828125,121.23047487304687,152.0620658828125,121.04388487304688C151.9140989828125,120.82031887304687,151.9140989828125,120.82031887304687,151.9397336828125,120.46997687304687C152.1265168828125,119.90962767304687,152.2495288828125,119.86774357304688,152.8447608828125,119.83224487304688Z" fill="#060706" fill-opacity="1" style="mix-blend-mode:passthrough"/></g><g><path d="M133.28613625,115.1977656875C133.42077625,115.2002330375,133.55542625,115.2027003775,133.69415625,115.2052425375C133.84747625,115.2100009375,133.84747625,115.2100009375,134.00390625,115.2148555375C134.18437625,115.5757929375,134.36484625,115.9367309375,134.55078625,116.3086059375C134.05449625,116.5793059375,133.55820625,116.8500159375,133.04687625,117.1289159375C132.64082025,116.7228659375,132.23476525,116.3168059375,131.81640625,115.8984489375C131.95312525,115.4882929375,131.95312525,115.4882929375,132.18597425,115.3270079375C132.56964325,115.1899830575,132.87965625,115.1880877475,133.28613625,115.1977656875Z" fill="#070808" fill-opacity="1" style="mix-blend-mode:passthrough"/></g><g><path d="M144.94140875,110.83984375C144.94140875,111.33613275,144.94140875,111.83242175,144.94140875,112.34375375C144.46767575,112.54677375,144.46767575,112.54677375,143.98437475,112.75390375C143.91524975,112.55764375,143.84707175,112.36104375,143.77929675,112.16430375C143.74122975,112.05486375,143.70316175,111.94541375,143.66394045,111.83265675C143.57421875,111.52343775,143.57421875,111.52343775,143.57421875,111.11328175C144.09380975,110.87575415,144.33945375,110.83984375,144.94140875,110.83984375Z" fill="#070709" fill-opacity="1" style="mix-blend-mode:passthrough"/></g><g><path d="M168.94409125,119.88894768097656C169.27734125,120.00003200097656,169.27734125,120.00003200097656,169.55078125,120.27346900097656C169.52515125,120.61526600097656,169.52515125,120.61526600097656,169.41406125,120.95706600097657C168.93188125,121.27851600097657,168.72653125,121.25981600097656,168.15795925,121.24758600097657C168.00938925,121.24512600097657,167.86082025,121.24265600097657,167.70774825,121.24011600097656C167.53723725,121.23535600097657,167.53723725,121.23535600097657,167.36328125,121.23049600097656C167.49123725,121.07935600097656,167.61946425,120.92843600097656,167.74780325,120.77762000097657C167.81917925,120.69355400097656,167.89055625,120.60948800097657,167.96409625,120.52287400097656C168.54754125,119.85993180097657,168.54754125,119.85993180097657,168.94409125,119.88894768097656Z" fill="#0D0E0E" fill-opacity="1" style="mix-blend-mode:passthrough"/></g></g></g></g></svg>